<svg width="1426" height="1234" viewBox="0 0 1426 1234" fill="none" xmlns="http://www.w3.org/2000/svg">
<mask id="path-1-inside-1_240_383" fill="white">
<path d="M0 463H75.0769V540.1H0V463Z"/>
</mask>
<path d="M0 540.1H-1V541.1H0V540.1ZM75.0769 539.1H0V541.1H75.0769V539.1ZM1 540.1V463H-1V540.1H1Z" fill="#333333" mask="url(#path-1-inside-1_240_383)"/>
<mask id="path-3-inside-2_240_383" fill="white">
<path d="M0 540.1H75.0769V617.2H0V540.1Z"/>
</mask>
<path d="M0 617.2H-1V618.2H0V617.2ZM75.0769 616.2H0V618.2H75.0769V616.2ZM1 617.2V540.1H-1V617.2H1Z" fill="#333333" mask="url(#path-3-inside-2_240_383)"/>
<mask id="path-5-inside-3_240_383" fill="white">
<path d="M0 617.2H75.0769V694.3H0V617.2Z"/>
</mask>
<path d="M0 694.3H-1V695.3H0V694.3ZM75.0769 693.3H0V695.3H75.0769V693.3ZM1 694.3V617.2H-1V694.3H1Z" fill="#333333" mask="url(#path-5-inside-3_240_383)"/>
<mask id="path-7-inside-4_240_383" fill="white">
<path d="M0 694.3H75.0769V771.4H0V694.3Z"/>
</mask>
<path d="M0 771.4H-1V772.4H0V771.4ZM75.0769 770.4H0V772.4H75.0769V770.4ZM1 771.4V694.3H-1V771.4H1Z" fill="#333333" mask="url(#path-7-inside-4_240_383)"/>
<mask id="path-9-inside-5_240_383" fill="white">
<path d="M0 0.399902H75.0769V77.4999H0V0.399902Z"/>
</mask>
<path d="M0 77.4999H-1V78.4999H0V77.4999ZM75.0769 76.4999H0V78.4999H75.0769V76.4999ZM1 77.4999V0.399902H-1V77.4999H1Z" fill="#333333" mask="url(#path-9-inside-5_240_383)"/>
<mask id="path-11-inside-6_240_383" fill="white">
<path d="M0 771.4H75.0769V848.5H0V771.4Z"/>
</mask>
<path d="M0 848.5H-1V849.5H0V848.5ZM75.0769 847.5H0V849.5H75.0769V847.5ZM1 848.5V771.4H-1V848.5H1Z" fill="#333333" mask="url(#path-11-inside-6_240_383)"/>
<mask id="path-13-inside-7_240_383" fill="white">
<path d="M0 77.5H75.0769V154.6H0V77.5Z"/>
</mask>
<path d="M0 154.6H-1V155.6H0V154.6ZM75.0769 153.6H0V155.6H75.0769V153.6ZM1 154.6V77.5H-1V154.6H1Z" fill="#333333" mask="url(#path-13-inside-7_240_383)"/>
<mask id="path-15-inside-8_240_383" fill="white">
<path d="M0 848.5H75.0769V925.6H0V848.5Z"/>
</mask>
<path d="M0 925.6H-1V926.6H0V925.6ZM75.0769 924.6H0V926.6H75.0769V924.6ZM1 925.6V848.5H-1V925.6H1Z" fill="#333333" mask="url(#path-15-inside-8_240_383)"/>
<mask id="path-17-inside-9_240_383" fill="white">
<path d="M0 154.6H75.0769V231.7H0V154.6Z"/>
</mask>
<path d="M0 231.7H-1V232.7H0V231.7ZM75.0769 230.7H0V232.7H75.0769V230.7ZM1 231.7V154.6H-1V231.7H1Z" fill="#333333" mask="url(#path-17-inside-9_240_383)"/>
<mask id="path-19-inside-10_240_383" fill="white">
<path d="M0 925.6H75.0769V1002.7H0V925.6Z"/>
</mask>
<path d="M0 1002.7H-1V1003.7H0V1002.7ZM75.0769 1001.7H0V1003.7H75.0769V1001.7ZM1 1002.7V925.6H-1V1002.7H1Z" fill="#333333" mask="url(#path-19-inside-10_240_383)"/>
<mask id="path-21-inside-11_240_383" fill="white">
<path d="M0 231.7H75.0769V308.8H0V231.7Z"/>
</mask>
<path d="M0 308.8H-1V309.8H0V308.8ZM75.0769 307.8H0V309.8H75.0769V307.8ZM1 308.8V231.7H-1V308.8H1Z" fill="#333333" mask="url(#path-21-inside-11_240_383)"/>
<mask id="path-23-inside-12_240_383" fill="white">
<path d="M0 1002.7H75.0769V1079.8H0V1002.7Z"/>
</mask>
<path d="M0 1079.8H-1V1080.8H0V1079.8ZM75.0769 1078.8H0V1080.8H75.0769V1078.8ZM1 1079.8V1002.7H-1V1079.8H1Z" fill="#333333" mask="url(#path-23-inside-12_240_383)"/>
<mask id="path-25-inside-13_240_383" fill="white">
<path d="M0 308.8H75.0769V385.9H0V308.8Z"/>
</mask>
<path d="M0 385.9H-1V386.9H0V385.9ZM75.0769 384.9H0V386.9H75.0769V384.9ZM1 385.9V308.8H-1V385.9H1Z" fill="#333333" mask="url(#path-25-inside-13_240_383)"/>
<mask id="path-27-inside-14_240_383" fill="white">
<path d="M0 1079.8H75.0769V1156.9H0V1079.8Z"/>
</mask>
<path d="M0 1156.9H-1V1157.9H0V1156.9ZM75.0769 1155.9H0V1157.9H75.0769V1155.9ZM1 1156.9V1079.8H-1V1156.9H1Z" fill="#333333" mask="url(#path-27-inside-14_240_383)"/>
<mask id="path-29-inside-15_240_383" fill="white">
<path d="M0 385.9H75.0769V463H0V385.9Z"/>
</mask>
<path d="M0 463H-1V464H0V463ZM75.0769 462H0V464H75.0769V462ZM1 463V385.9H-1V463H1Z" fill="#333333" mask="url(#path-29-inside-15_240_383)"/>
<mask id="path-31-inside-16_240_383" fill="white">
<path d="M0 1156.9H75.0769V1234H0V1156.9Z"/>
</mask>
<path d="M0 1234H-1V1235H0V1234ZM75.0769 1233H0V1235H75.0769V1233ZM1 1234V1156.9H-1V1234H1Z" fill="#333333" mask="url(#path-31-inside-16_240_383)"/>
<mask id="path-33-inside-17_240_383" fill="white">
<path d="M75.0771 463H150.154V540.1H75.0771V463Z"/>
</mask>
<path d="M75.0771 540.1H74.0771V541.1H75.0771V540.1ZM150.154 539.1H75.0771V541.1H150.154V539.1ZM76.0771 540.1V463H74.0771V540.1H76.0771Z" fill="#333333" mask="url(#path-33-inside-17_240_383)"/>
<mask id="path-35-inside-18_240_383" fill="white">
<path d="M75.0771 540.1H150.154V617.2H75.0771V540.1Z"/>
</mask>
<path d="M75.0771 617.2H74.0771V618.2H75.0771V617.2ZM150.154 616.2H75.0771V618.2H150.154V616.2ZM76.0771 617.2V540.1H74.0771V617.2H76.0771Z" fill="#333333" mask="url(#path-35-inside-18_240_383)"/>
<mask id="path-37-inside-19_240_383" fill="white">
<path d="M75.0771 617.2H150.154V694.3H75.0771V617.2Z"/>
</mask>
<path d="M75.0771 694.3H74.0771V695.3H75.0771V694.3ZM150.154 693.3H75.0771V695.3H150.154V693.3ZM76.0771 694.3V617.2H74.0771V694.3H76.0771Z" fill="#333333" mask="url(#path-37-inside-19_240_383)"/>
<mask id="path-39-inside-20_240_383" fill="white">
<path d="M75.0771 694.3H150.154V771.4H75.0771V694.3Z"/>
</mask>
<path d="M75.0771 771.4H74.0771V772.4H75.0771V771.4ZM150.154 770.4H75.0771V772.4H150.154V770.4ZM76.0771 771.4V694.3H74.0771V771.4H76.0771Z" fill="#333333" mask="url(#path-39-inside-20_240_383)"/>
<mask id="path-41-inside-21_240_383" fill="white">
<path d="M75.0771 0.399902H150.154V77.4999H75.0771V0.399902Z"/>
</mask>
<path d="M75.0771 77.4999H74.0771V78.4999H75.0771V77.4999ZM150.154 76.4999H75.0771V78.4999H150.154V76.4999ZM76.0771 77.4999V0.399902H74.0771V77.4999H76.0771Z" fill="#333333" mask="url(#path-41-inside-21_240_383)"/>
<mask id="path-43-inside-22_240_383" fill="white">
<path d="M75.0771 771.4H150.154V848.5H75.0771V771.4Z"/>
</mask>
<path d="M75.0771 848.5H74.0771V849.5H75.0771V848.5ZM150.154 847.5H75.0771V849.5H150.154V847.5ZM76.0771 848.5V771.4H74.0771V848.5H76.0771Z" fill="#333333" mask="url(#path-43-inside-22_240_383)"/>
<mask id="path-45-inside-23_240_383" fill="white">
<path d="M75.0771 77.5H150.154V154.6H75.0771V77.5Z"/>
</mask>
<path d="M75.0771 154.6H74.0771V155.6H75.0771V154.6ZM150.154 153.6H75.0771V155.6H150.154V153.6ZM76.0771 154.6V77.5H74.0771V154.6H76.0771Z" fill="#333333" mask="url(#path-45-inside-23_240_383)"/>
<mask id="path-47-inside-24_240_383" fill="white">
<path d="M75.0771 848.5H150.154V925.6H75.0771V848.5Z"/>
</mask>
<path d="M75.0771 925.6H74.0771V926.6H75.0771V925.6ZM150.154 924.6H75.0771V926.6H150.154V924.6ZM76.0771 925.6V848.5H74.0771V925.6H76.0771Z" fill="#333333" mask="url(#path-47-inside-24_240_383)"/>
<mask id="path-49-inside-25_240_383" fill="white">
<path d="M75.0771 154.6H150.154V231.7H75.0771V154.6Z"/>
</mask>
<path d="M75.0771 231.7H74.0771V232.7H75.0771V231.7ZM150.154 230.7H75.0771V232.7H150.154V230.7ZM76.0771 231.7V154.6H74.0771V231.7H76.0771Z" fill="#333333" mask="url(#path-49-inside-25_240_383)"/>
<mask id="path-51-inside-26_240_383" fill="white">
<path d="M75.0771 925.6H150.154V1002.7H75.0771V925.6Z"/>
</mask>
<path d="M75.0771 1002.7H74.0771V1003.7H75.0771V1002.7ZM150.154 1001.7H75.0771V1003.7H150.154V1001.7ZM76.0771 1002.7V925.6H74.0771V1002.7H76.0771Z" fill="#333333" mask="url(#path-51-inside-26_240_383)"/>
<mask id="path-53-inside-27_240_383" fill="white">
<path d="M75.0771 231.7H150.154V308.8H75.0771V231.7Z"/>
</mask>
<path d="M75.0771 308.8H74.0771V309.8H75.0771V308.8ZM150.154 307.8H75.0771V309.8H150.154V307.8ZM76.0771 308.8V231.7H74.0771V308.8H76.0771Z" fill="#333333" mask="url(#path-53-inside-27_240_383)"/>
<mask id="path-55-inside-28_240_383" fill="white">
<path d="M75.0771 1002.7H150.154V1079.8H75.0771V1002.7Z"/>
</mask>
<path d="M75.0771 1079.8H74.0771V1080.8H75.0771V1079.8ZM150.154 1078.8H75.0771V1080.8H150.154V1078.8ZM76.0771 1079.8V1002.7H74.0771V1079.8H76.0771Z" fill="#333333" mask="url(#path-55-inside-28_240_383)"/>
<mask id="path-57-inside-29_240_383" fill="white">
<path d="M75.0771 308.8H150.154V385.9H75.0771V308.8Z"/>
</mask>
<path d="M75.0771 385.9H74.0771V386.9H75.0771V385.9ZM150.154 384.9H75.0771V386.9H150.154V384.9ZM76.0771 385.9V308.8H74.0771V385.9H76.0771Z" fill="#333333" mask="url(#path-57-inside-29_240_383)"/>
<mask id="path-59-inside-30_240_383" fill="white">
<path d="M75.0771 1079.8H150.154V1156.9H75.0771V1079.8Z"/>
</mask>
<path d="M75.0771 1156.9H74.0771V1157.9H75.0771V1156.9ZM150.154 1155.9H75.0771V1157.9H150.154V1155.9ZM76.0771 1156.9V1079.8H74.0771V1156.9H76.0771Z" fill="#333333" mask="url(#path-59-inside-30_240_383)"/>
<mask id="path-61-inside-31_240_383" fill="white">
<path d="M75.0771 385.9H150.154V463H75.0771V385.9Z"/>
</mask>
<path d="M75.0771 463H74.0771V464H75.0771V463ZM150.154 462H75.0771V464H150.154V462ZM76.0771 463V385.9H74.0771V463H76.0771Z" fill="#333333" mask="url(#path-61-inside-31_240_383)"/>
<mask id="path-63-inside-32_240_383" fill="white">
<path d="M75.0771 1156.9H150.154V1234H75.0771V1156.9Z"/>
</mask>
<path d="M75.0771 1234H74.0771V1235H75.0771V1234ZM150.154 1233H75.0771V1235H150.154V1233ZM76.0771 1234V1156.9H74.0771V1234H76.0771Z" fill="#333333" mask="url(#path-63-inside-32_240_383)"/>
<mask id="path-65-inside-33_240_383" fill="white">
<path d="M150.154 463H225.231V540.1H150.154V463Z"/>
</mask>
<path d="M150.154 540.1H149.154V541.1H150.154V540.1ZM225.231 539.1H150.154V541.1H225.231V539.1ZM151.154 540.1V463H149.154V540.1H151.154Z" fill="#333333" mask="url(#path-65-inside-33_240_383)"/>
<mask id="path-67-inside-34_240_383" fill="white">
<path d="M150.154 540.1H225.231V617.2H150.154V540.1Z"/>
</mask>
<path d="M150.154 617.2H149.154V618.2H150.154V617.2ZM225.231 616.2H150.154V618.2H225.231V616.2ZM151.154 617.2V540.1H149.154V617.2H151.154Z" fill="#333333" mask="url(#path-67-inside-34_240_383)"/>
<mask id="path-69-inside-35_240_383" fill="white">
<path d="M150.154 617.2H225.231V694.3H150.154V617.2Z"/>
</mask>
<path d="M150.154 694.3H149.154V695.3H150.154V694.3ZM225.231 693.3H150.154V695.3H225.231V693.3ZM151.154 694.3V617.2H149.154V694.3H151.154Z" fill="#333333" mask="url(#path-69-inside-35_240_383)"/>
<mask id="path-71-inside-36_240_383" fill="white">
<path d="M150.154 694.3H225.231V771.4H150.154V694.3Z"/>
</mask>
<path d="M150.154 771.4H149.154V772.4H150.154V771.4ZM225.231 770.4H150.154V772.4H225.231V770.4ZM151.154 771.4V694.3H149.154V771.4H151.154Z" fill="#333333" mask="url(#path-71-inside-36_240_383)"/>
<mask id="path-73-inside-37_240_383" fill="white">
<path d="M150.154 0.399902H225.231V77.4999H150.154V0.399902Z"/>
</mask>
<path d="M150.154 77.4999H149.154V78.4999H150.154V77.4999ZM225.231 76.4999H150.154V78.4999H225.231V76.4999ZM151.154 77.4999V0.399902H149.154V77.4999H151.154Z" fill="#333333" mask="url(#path-73-inside-37_240_383)"/>
<mask id="path-75-inside-38_240_383" fill="white">
<path d="M150.154 771.4H225.231V848.5H150.154V771.4Z"/>
</mask>
<path d="M150.154 848.5H149.154V849.5H150.154V848.5ZM225.231 847.5H150.154V849.5H225.231V847.5ZM151.154 848.5V771.4H149.154V848.5H151.154Z" fill="#333333" mask="url(#path-75-inside-38_240_383)"/>
<mask id="path-77-inside-39_240_383" fill="white">
<path d="M150.154 77.5H225.231V154.6H150.154V77.5Z"/>
</mask>
<path d="M150.154 154.6H149.154V155.6H150.154V154.6ZM225.231 153.6H150.154V155.6H225.231V153.6ZM151.154 154.6V77.5H149.154V154.6H151.154Z" fill="#333333" mask="url(#path-77-inside-39_240_383)"/>
<mask id="path-79-inside-40_240_383" fill="white">
<path d="M150.154 848.5H225.231V925.6H150.154V848.5Z"/>
</mask>
<path d="M150.154 925.6H149.154V926.6H150.154V925.6ZM225.231 924.6H150.154V926.6H225.231V924.6ZM151.154 925.6V848.5H149.154V925.6H151.154Z" fill="#333333" mask="url(#path-79-inside-40_240_383)"/>
<mask id="path-81-inside-41_240_383" fill="white">
<path d="M150.154 154.6H225.231V231.7H150.154V154.6Z"/>
</mask>
<path d="M150.154 231.7H149.154V232.7H150.154V231.7ZM225.231 230.7H150.154V232.7H225.231V230.7ZM151.154 231.7V154.6H149.154V231.7H151.154Z" fill="#333333" mask="url(#path-81-inside-41_240_383)"/>
<mask id="path-83-inside-42_240_383" fill="white">
<path d="M150.154 925.6H225.231V1002.7H150.154V925.6Z"/>
</mask>
<path d="M150.154 1002.7H149.154V1003.7H150.154V1002.7ZM225.231 1001.7H150.154V1003.7H225.231V1001.7ZM151.154 1002.7V925.6H149.154V1002.7H151.154Z" fill="#333333" mask="url(#path-83-inside-42_240_383)"/>
<mask id="path-85-inside-43_240_383" fill="white">
<path d="M150.154 231.7H225.231V308.8H150.154V231.7Z"/>
</mask>
<path d="M150.154 308.8H149.154V309.8H150.154V308.8ZM225.231 307.8H150.154V309.8H225.231V307.8ZM151.154 308.8V231.7H149.154V308.8H151.154Z" fill="#333333" mask="url(#path-85-inside-43_240_383)"/>
<mask id="path-87-inside-44_240_383" fill="white">
<path d="M150.154 1002.7H225.231V1079.8H150.154V1002.7Z"/>
</mask>
<path d="M150.154 1079.8H149.154V1080.8H150.154V1079.8ZM225.231 1078.8H150.154V1080.8H225.231V1078.8ZM151.154 1079.8V1002.7H149.154V1079.8H151.154Z" fill="#333333" mask="url(#path-87-inside-44_240_383)"/>
<mask id="path-89-inside-45_240_383" fill="white">
<path d="M150.154 308.8H225.231V385.9H150.154V308.8Z"/>
</mask>
<path d="M150.154 385.9H149.154V386.9H150.154V385.9ZM225.231 384.9H150.154V386.9H225.231V384.9ZM151.154 385.9V308.8H149.154V385.9H151.154Z" fill="#333333" mask="url(#path-89-inside-45_240_383)"/>
<mask id="path-91-inside-46_240_383" fill="white">
<path d="M150.154 1079.8H225.231V1156.9H150.154V1079.8Z"/>
</mask>
<path d="M150.154 1156.9H149.154V1157.9H150.154V1156.9ZM225.231 1155.9H150.154V1157.9H225.231V1155.9ZM151.154 1156.9V1079.8H149.154V1156.9H151.154Z" fill="#333333" mask="url(#path-91-inside-46_240_383)"/>
<mask id="path-93-inside-47_240_383" fill="white">
<path d="M150.154 385.9H225.231V463H150.154V385.9Z"/>
</mask>
<path d="M150.154 463H149.154V464H150.154V463ZM225.231 462H150.154V464H225.231V462ZM151.154 463V385.9H149.154V463H151.154Z" fill="#333333" mask="url(#path-93-inside-47_240_383)"/>
<mask id="path-95-inside-48_240_383" fill="white">
<path d="M150.154 1156.9H225.231V1234H150.154V1156.9Z"/>
</mask>
<path d="M150.154 1234H149.154V1235H150.154V1234ZM225.231 1233H150.154V1235H225.231V1233ZM151.154 1234V1156.9H149.154V1234H151.154Z" fill="#333333" mask="url(#path-95-inside-48_240_383)"/>
<mask id="path-97-inside-49_240_383" fill="white">
<path d="M225.23 463H300.307V540.1H225.23V463Z"/>
</mask>
<path d="M225.23 540.1H224.23V541.1H225.23V540.1ZM300.307 539.1H225.23V541.1H300.307V539.1ZM226.23 540.1V463H224.23V540.1H226.23Z" fill="#333333" mask="url(#path-97-inside-49_240_383)"/>
<mask id="path-99-inside-50_240_383" fill="white">
<path d="M225.23 540.1H300.307V617.2H225.23V540.1Z"/>
</mask>
<path d="M225.23 617.2H224.23V618.2H225.23V617.2ZM300.307 616.2H225.23V618.2H300.307V616.2ZM226.23 617.2V540.1H224.23V617.2H226.23Z" fill="#333333" mask="url(#path-99-inside-50_240_383)"/>
<mask id="path-101-inside-51_240_383" fill="white">
<path d="M225.23 617.2H300.307V694.3H225.23V617.2Z"/>
</mask>
<path d="M225.23 694.3H224.23V695.3H225.23V694.3ZM300.307 693.3H225.23V695.3H300.307V693.3ZM226.23 694.3V617.2H224.23V694.3H226.23Z" fill="#333333" mask="url(#path-101-inside-51_240_383)"/>
<mask id="path-103-inside-52_240_383" fill="white">
<path d="M225.23 694.3H300.307V771.4H225.23V694.3Z"/>
</mask>
<path d="M225.23 771.4H224.23V772.4H225.23V771.4ZM300.307 770.4H225.23V772.4H300.307V770.4ZM226.23 771.4V694.3H224.23V771.4H226.23Z" fill="#333333" mask="url(#path-103-inside-52_240_383)"/>
<mask id="path-105-inside-53_240_383" fill="white">
<path d="M225.23 0.399902H300.307V77.4999H225.23V0.399902Z"/>
</mask>
<path d="M225.23 77.4999H224.23V78.4999H225.23V77.4999ZM300.307 76.4999H225.23V78.4999H300.307V76.4999ZM226.23 77.4999V0.399902H224.23V77.4999H226.23Z" fill="#333333" mask="url(#path-105-inside-53_240_383)"/>
<mask id="path-107-inside-54_240_383" fill="white">
<path d="M225.23 771.4H300.307V848.5H225.23V771.4Z"/>
</mask>
<path d="M225.23 848.5H224.23V849.5H225.23V848.5ZM300.307 847.5H225.23V849.5H300.307V847.5ZM226.23 848.5V771.4H224.23V848.5H226.23Z" fill="#333333" mask="url(#path-107-inside-54_240_383)"/>
<mask id="path-109-inside-55_240_383" fill="white">
<path d="M225.23 77.5H300.307V154.6H225.23V77.5Z"/>
</mask>
<path d="M225.23 154.6H224.23V155.6H225.23V154.6ZM300.307 153.6H225.23V155.6H300.307V153.6ZM226.23 154.6V77.5H224.23V154.6H226.23Z" fill="#333333" mask="url(#path-109-inside-55_240_383)"/>
<mask id="path-111-inside-56_240_383" fill="white">
<path d="M225.23 848.5H300.307V925.6H225.23V848.5Z"/>
</mask>
<path d="M225.23 925.6H224.23V926.6H225.23V925.6ZM300.307 924.6H225.23V926.6H300.307V924.6ZM226.23 925.6V848.5H224.23V925.6H226.23Z" fill="#333333" mask="url(#path-111-inside-56_240_383)"/>
<mask id="path-113-inside-57_240_383" fill="white">
<path d="M225.23 154.6H300.307V231.7H225.23V154.6Z"/>
</mask>
<path d="M225.23 231.7H224.23V232.7H225.23V231.7ZM300.307 230.7H225.23V232.7H300.307V230.7ZM226.23 231.7V154.6H224.23V231.7H226.23Z" fill="#333333" mask="url(#path-113-inside-57_240_383)"/>
<mask id="path-115-inside-58_240_383" fill="white">
<path d="M225.23 925.6H300.307V1002.7H225.23V925.6Z"/>
</mask>
<path d="M225.23 1002.7H224.23V1003.7H225.23V1002.7ZM300.307 1001.7H225.23V1003.7H300.307V1001.7ZM226.23 1002.7V925.6H224.23V1002.7H226.23Z" fill="#333333" mask="url(#path-115-inside-58_240_383)"/>
<mask id="path-117-inside-59_240_383" fill="white">
<path d="M225.23 231.7H300.307V308.8H225.23V231.7Z"/>
</mask>
<path d="M225.23 308.8H224.23V309.8H225.23V308.8ZM300.307 307.8H225.23V309.8H300.307V307.8ZM226.23 308.8V231.7H224.23V308.8H226.23Z" fill="#333333" mask="url(#path-117-inside-59_240_383)"/>
<mask id="path-119-inside-60_240_383" fill="white">
<path d="M225.23 1002.7H300.307V1079.8H225.23V1002.7Z"/>
</mask>
<path d="M225.23 1079.8H224.23V1080.8H225.23V1079.8ZM300.307 1078.8H225.23V1080.8H300.307V1078.8ZM226.23 1079.8V1002.7H224.23V1079.8H226.23Z" fill="#333333" mask="url(#path-119-inside-60_240_383)"/>
<mask id="path-121-inside-61_240_383" fill="white">
<path d="M225.23 308.8H300.307V385.9H225.23V308.8Z"/>
</mask>
<path d="M225.23 385.9H224.23V386.9H225.23V385.9ZM300.307 384.9H225.23V386.9H300.307V384.9ZM226.23 385.9V308.8H224.23V385.9H226.23Z" fill="#333333" mask="url(#path-121-inside-61_240_383)"/>
<mask id="path-123-inside-62_240_383" fill="white">
<path d="M225.23 1079.8H300.307V1156.9H225.23V1079.8Z"/>
</mask>
<path d="M225.23 1156.9H224.23V1157.9H225.23V1156.9ZM300.307 1155.9H225.23V1157.9H300.307V1155.9ZM226.23 1156.9V1079.8H224.23V1156.9H226.23Z" fill="#333333" mask="url(#path-123-inside-62_240_383)"/>
<mask id="path-125-inside-63_240_383" fill="white">
<path d="M225.23 385.9H300.307V463H225.23V385.9Z"/>
</mask>
<path d="M225.23 463H224.23V464H225.23V463ZM300.307 462H225.23V464H300.307V462ZM226.23 463V385.9H224.23V463H226.23Z" fill="#333333" mask="url(#path-125-inside-63_240_383)"/>
<mask id="path-127-inside-64_240_383" fill="white">
<path d="M225.23 1156.9H300.307V1234H225.23V1156.9Z"/>
</mask>
<path d="M225.23 1234H224.23V1235H225.23V1234ZM300.307 1233H225.23V1235H300.307V1233ZM226.23 1234V1156.9H224.23V1234H226.23Z" fill="#333333" mask="url(#path-127-inside-64_240_383)"/>
<mask id="path-129-inside-65_240_383" fill="white">
<path d="M300.308 463H375.385V540.1H300.308V463Z"/>
</mask>
<path d="M300.308 540.1H299.308V541.1H300.308V540.1ZM375.385 539.1H300.308V541.1H375.385V539.1ZM301.308 540.1V463H299.308V540.1H301.308Z" fill="#333333" mask="url(#path-129-inside-65_240_383)"/>
<mask id="path-131-inside-66_240_383" fill="white">
<path d="M300.308 540.1H375.385V617.2H300.308V540.1Z"/>
</mask>
<path d="M300.308 617.2H299.308V618.2H300.308V617.2ZM375.385 616.2H300.308V618.2H375.385V616.2ZM301.308 617.2V540.1H299.308V617.2H301.308Z" fill="#333333" mask="url(#path-131-inside-66_240_383)"/>
<mask id="path-133-inside-67_240_383" fill="white">
<path d="M300.308 617.2H375.385V694.3H300.308V617.2Z"/>
</mask>
<path d="M300.308 694.3H299.308V695.3H300.308V694.3ZM375.385 693.3H300.308V695.3H375.385V693.3ZM301.308 694.3V617.2H299.308V694.3H301.308Z" fill="#333333" mask="url(#path-133-inside-67_240_383)"/>
<mask id="path-135-inside-68_240_383" fill="white">
<path d="M300.308 694.3H375.385V771.4H300.308V694.3Z"/>
</mask>
<path d="M300.308 771.4H299.308V772.4H300.308V771.4ZM375.385 770.4H300.308V772.4H375.385V770.4ZM301.308 771.4V694.3H299.308V771.4H301.308Z" fill="#333333" mask="url(#path-135-inside-68_240_383)"/>
<mask id="path-137-inside-69_240_383" fill="white">
<path d="M300.308 0.399902H375.385V77.4999H300.308V0.399902Z"/>
</mask>
<path d="M300.308 77.4999H299.308V78.4999H300.308V77.4999ZM375.385 76.4999H300.308V78.4999H375.385V76.4999ZM301.308 77.4999V0.399902H299.308V77.4999H301.308Z" fill="#333333" mask="url(#path-137-inside-69_240_383)"/>
<mask id="path-139-inside-70_240_383" fill="white">
<path d="M300.308 771.4H375.385V848.5H300.308V771.4Z"/>
</mask>
<path d="M300.308 848.5H299.308V849.5H300.308V848.5ZM375.385 847.5H300.308V849.5H375.385V847.5ZM301.308 848.5V771.4H299.308V848.5H301.308Z" fill="#333333" mask="url(#path-139-inside-70_240_383)"/>
<mask id="path-141-inside-71_240_383" fill="white">
<path d="M300.308 77.5H375.385V154.6H300.308V77.5Z"/>
</mask>
<path d="M300.308 154.6H299.308V155.6H300.308V154.6ZM375.385 153.6H300.308V155.6H375.385V153.6ZM301.308 154.6V77.5H299.308V154.6H301.308Z" fill="#333333" mask="url(#path-141-inside-71_240_383)"/>
<mask id="path-143-inside-72_240_383" fill="white">
<path d="M300.308 848.5H375.385V925.6H300.308V848.5Z"/>
</mask>
<path d="M300.308 925.6H299.308V926.6H300.308V925.6ZM375.385 924.6H300.308V926.6H375.385V924.6ZM301.308 925.6V848.5H299.308V925.6H301.308Z" fill="#333333" mask="url(#path-143-inside-72_240_383)"/>
<mask id="path-145-inside-73_240_383" fill="white">
<path d="M300.308 154.6H375.385V231.7H300.308V154.6Z"/>
</mask>
<path d="M300.308 231.7H299.308V232.7H300.308V231.7ZM375.385 230.7H300.308V232.7H375.385V230.7ZM301.308 231.7V154.6H299.308V231.7H301.308Z" fill="#333333" mask="url(#path-145-inside-73_240_383)"/>
<mask id="path-147-inside-74_240_383" fill="white">
<path d="M300.308 925.6H375.385V1002.7H300.308V925.6Z"/>
</mask>
<path d="M300.308 1002.7H299.308V1003.7H300.308V1002.7ZM375.385 1001.7H300.308V1003.7H375.385V1001.7ZM301.308 1002.7V925.6H299.308V1002.7H301.308Z" fill="#333333" mask="url(#path-147-inside-74_240_383)"/>
<mask id="path-149-inside-75_240_383" fill="white">
<path d="M300.308 231.7H375.385V308.8H300.308V231.7Z"/>
</mask>
<path d="M300.308 308.8H299.308V309.8H300.308V308.8ZM375.385 307.8H300.308V309.8H375.385V307.8ZM301.308 308.8V231.7H299.308V308.8H301.308Z" fill="#333333" mask="url(#path-149-inside-75_240_383)"/>
<mask id="path-151-inside-76_240_383" fill="white">
<path d="M300.308 1002.7H375.385V1079.8H300.308V1002.7Z"/>
</mask>
<path d="M300.308 1079.8H299.308V1080.8H300.308V1079.8ZM375.385 1078.8H300.308V1080.8H375.385V1078.8ZM301.308 1079.8V1002.7H299.308V1079.8H301.308Z" fill="#333333" mask="url(#path-151-inside-76_240_383)"/>
<mask id="path-153-inside-77_240_383" fill="white">
<path d="M300.308 308.8H375.385V385.9H300.308V308.8Z"/>
</mask>
<path d="M300.308 385.9H299.308V386.9H300.308V385.9ZM375.385 384.9H300.308V386.9H375.385V384.9ZM301.308 385.9V308.8H299.308V385.9H301.308Z" fill="#333333" mask="url(#path-153-inside-77_240_383)"/>
<mask id="path-155-inside-78_240_383" fill="white">
<path d="M300.308 1079.8H375.385V1156.9H300.308V1079.8Z"/>
</mask>
<path d="M300.308 1156.9H299.308V1157.9H300.308V1156.9ZM375.385 1155.9H300.308V1157.9H375.385V1155.9ZM301.308 1156.9V1079.8H299.308V1156.9H301.308Z" fill="#333333" mask="url(#path-155-inside-78_240_383)"/>
<mask id="path-157-inside-79_240_383" fill="white">
<path d="M300.308 385.9H375.385V463H300.308V385.9Z"/>
</mask>
<path d="M300.308 463H299.308V464H300.308V463ZM375.385 462H300.308V464H375.385V462ZM301.308 463V385.9H299.308V463H301.308Z" fill="#333333" mask="url(#path-157-inside-79_240_383)"/>
<mask id="path-159-inside-80_240_383" fill="white">
<path d="M300.308 1156.9H375.385V1234H300.308V1156.9Z"/>
</mask>
<path d="M300.308 1234H299.308V1235H300.308V1234ZM375.385 1233H300.308V1235H375.385V1233ZM301.308 1234V1156.9H299.308V1234H301.308Z" fill="#333333" mask="url(#path-159-inside-80_240_383)"/>
<mask id="path-161-inside-81_240_383" fill="white">
<path d="M375.385 463H450.462V540.1H375.385V463Z"/>
</mask>
<path d="M375.385 540.1H374.385V541.1H375.385V540.1ZM450.462 539.1H375.385V541.1H450.462V539.1ZM376.385 540.1V463H374.385V540.1H376.385Z" fill="#333333" mask="url(#path-161-inside-81_240_383)"/>
<mask id="path-163-inside-82_240_383" fill="white">
<path d="M375.385 540.1H450.462V617.2H375.385V540.1Z"/>
</mask>
<path d="M375.385 617.2H374.385V618.2H375.385V617.2ZM450.462 616.2H375.385V618.2H450.462V616.2ZM376.385 617.2V540.1H374.385V617.2H376.385Z" fill="#333333" mask="url(#path-163-inside-82_240_383)"/>
<mask id="path-165-inside-83_240_383" fill="white">
<path d="M375.385 617.2H450.462V694.3H375.385V617.2Z"/>
</mask>
<path d="M375.385 694.3H374.385V695.3H375.385V694.3ZM450.462 693.3H375.385V695.3H450.462V693.3ZM376.385 694.3V617.2H374.385V694.3H376.385Z" fill="#333333" mask="url(#path-165-inside-83_240_383)"/>
<mask id="path-167-inside-84_240_383" fill="white">
<path d="M375.385 694.3H450.462V771.4H375.385V694.3Z"/>
</mask>
<path d="M375.385 771.4H374.385V772.4H375.385V771.4ZM450.462 770.4H375.385V772.4H450.462V770.4ZM376.385 771.4V694.3H374.385V771.4H376.385Z" fill="#333333" mask="url(#path-167-inside-84_240_383)"/>
<mask id="path-169-inside-85_240_383" fill="white">
<path d="M375.385 0.399902H450.462V77.4999H375.385V0.399902Z"/>
</mask>
<path d="M375.385 77.4999H374.385V78.4999H375.385V77.4999ZM450.462 76.4999H375.385V78.4999H450.462V76.4999ZM376.385 77.4999V0.399902H374.385V77.4999H376.385Z" fill="#333333" mask="url(#path-169-inside-85_240_383)"/>
<mask id="path-171-inside-86_240_383" fill="white">
<path d="M375.385 771.4H450.462V848.5H375.385V771.4Z"/>
</mask>
<path d="M375.385 848.5H374.385V849.5H375.385V848.5ZM450.462 847.5H375.385V849.5H450.462V847.5ZM376.385 848.5V771.4H374.385V848.5H376.385Z" fill="#333333" mask="url(#path-171-inside-86_240_383)"/>
<mask id="path-173-inside-87_240_383" fill="white">
<path d="M375.385 77.5H450.462V154.6H375.385V77.5Z"/>
</mask>
<path d="M375.385 154.6H374.385V155.6H375.385V154.6ZM450.462 153.6H375.385V155.6H450.462V153.6ZM376.385 154.6V77.5H374.385V154.6H376.385Z" fill="#333333" mask="url(#path-173-inside-87_240_383)"/>
<mask id="path-175-inside-88_240_383" fill="white">
<path d="M375.385 848.5H450.462V925.6H375.385V848.5Z"/>
</mask>
<path d="M375.385 925.6H374.385V926.6H375.385V925.6ZM450.462 924.6H375.385V926.6H450.462V924.6ZM376.385 925.6V848.5H374.385V925.6H376.385Z" fill="#333333" mask="url(#path-175-inside-88_240_383)"/>
<mask id="path-177-inside-89_240_383" fill="white">
<path d="M375.385 154.6H450.462V231.7H375.385V154.6Z"/>
</mask>
<path d="M375.385 231.7H374.385V232.7H375.385V231.7ZM450.462 230.7H375.385V232.7H450.462V230.7ZM376.385 231.7V154.6H374.385V231.7H376.385Z" fill="#333333" mask="url(#path-177-inside-89_240_383)"/>
<mask id="path-179-inside-90_240_383" fill="white">
<path d="M375.385 925.6H450.462V1002.7H375.385V925.6Z"/>
</mask>
<path d="M375.385 1002.7H374.385V1003.7H375.385V1002.7ZM450.462 1001.7H375.385V1003.7H450.462V1001.7ZM376.385 1002.7V925.6H374.385V1002.7H376.385Z" fill="#333333" mask="url(#path-179-inside-90_240_383)"/>
<mask id="path-181-inside-91_240_383" fill="white">
<path d="M375.385 231.7H450.462V308.8H375.385V231.7Z"/>
</mask>
<path d="M375.385 308.8H374.385V309.8H375.385V308.8ZM450.462 307.8H375.385V309.8H450.462V307.8ZM376.385 308.8V231.7H374.385V308.8H376.385Z" fill="#333333" mask="url(#path-181-inside-91_240_383)"/>
<mask id="path-183-inside-92_240_383" fill="white">
<path d="M375.385 1002.7H450.462V1079.8H375.385V1002.7Z"/>
</mask>
<path d="M375.385 1079.8H374.385V1080.8H375.385V1079.8ZM450.462 1078.8H375.385V1080.8H450.462V1078.8ZM376.385 1079.8V1002.7H374.385V1079.8H376.385Z" fill="#333333" mask="url(#path-183-inside-92_240_383)"/>
<mask id="path-185-inside-93_240_383" fill="white">
<path d="M375.385 308.8H450.462V385.9H375.385V308.8Z"/>
</mask>
<path d="M375.385 385.9H374.385V386.9H375.385V385.9ZM450.462 384.9H375.385V386.9H450.462V384.9ZM376.385 385.9V308.8H374.385V385.9H376.385Z" fill="#333333" mask="url(#path-185-inside-93_240_383)"/>
<mask id="path-187-inside-94_240_383" fill="white">
<path d="M375.385 1079.8H450.462V1156.9H375.385V1079.8Z"/>
</mask>
<path d="M375.385 1156.9H374.385V1157.9H375.385V1156.9ZM450.462 1155.9H375.385V1157.9H450.462V1155.9ZM376.385 1156.9V1079.8H374.385V1156.9H376.385Z" fill="#333333" mask="url(#path-187-inside-94_240_383)"/>
<mask id="path-189-inside-95_240_383" fill="white">
<path d="M375.385 385.9H450.462V463H375.385V385.9Z"/>
</mask>
<path d="M375.385 463H374.385V464H375.385V463ZM450.462 462H375.385V464H450.462V462ZM376.385 463V385.9H374.385V463H376.385Z" fill="#333333" mask="url(#path-189-inside-95_240_383)"/>
<mask id="path-191-inside-96_240_383" fill="white">
<path d="M375.385 1156.9H450.462V1234H375.385V1156.9Z"/>
</mask>
<path d="M375.385 1234H374.385V1235H375.385V1234ZM450.462 1233H375.385V1235H450.462V1233ZM376.385 1234V1156.9H374.385V1234H376.385Z" fill="#333333" mask="url(#path-191-inside-96_240_383)"/>
<mask id="path-193-inside-97_240_383" fill="white">
<path d="M450.462 463H525.539V540.1H450.462V463Z"/>
</mask>
<path d="M450.462 540.1H449.462V541.1H450.462V540.1ZM525.539 539.1H450.462V541.1H525.539V539.1ZM451.462 540.1V463H449.462V540.1H451.462Z" fill="#333333" mask="url(#path-193-inside-97_240_383)"/>
<mask id="path-195-inside-98_240_383" fill="white">
<path d="M450.462 540.1H525.539V617.2H450.462V540.1Z"/>
</mask>
<path d="M450.462 617.2H449.462V618.2H450.462V617.2ZM525.539 616.2H450.462V618.2H525.539V616.2ZM451.462 617.2V540.1H449.462V617.2H451.462Z" fill="#333333" mask="url(#path-195-inside-98_240_383)"/>
<mask id="path-197-inside-99_240_383" fill="white">
<path d="M450.462 617.2H525.539V694.3H450.462V617.2Z"/>
</mask>
<path d="M450.462 694.3H449.462V695.3H450.462V694.3ZM525.539 693.3H450.462V695.3H525.539V693.3ZM451.462 694.3V617.2H449.462V694.3H451.462Z" fill="#333333" mask="url(#path-197-inside-99_240_383)"/>
<mask id="path-199-inside-100_240_383" fill="white">
<path d="M450.462 694.3H525.539V771.4H450.462V694.3Z"/>
</mask>
<path d="M450.462 771.4H449.462V772.4H450.462V771.4ZM525.539 770.4H450.462V772.4H525.539V770.4ZM451.462 771.4V694.3H449.462V771.4H451.462Z" fill="#333333" mask="url(#path-199-inside-100_240_383)"/>
<mask id="path-201-inside-101_240_383" fill="white">
<path d="M450.462 0.399902H525.539V77.4999H450.462V0.399902Z"/>
</mask>
<path d="M450.462 77.4999H449.462V78.4999H450.462V77.4999ZM525.539 76.4999H450.462V78.4999H525.539V76.4999ZM451.462 77.4999V0.399902H449.462V77.4999H451.462Z" fill="#333333" mask="url(#path-201-inside-101_240_383)"/>
<mask id="path-203-inside-102_240_383" fill="white">
<path d="M450.462 771.4H525.539V848.5H450.462V771.4Z"/>
</mask>
<path d="M450.462 848.5H449.462V849.5H450.462V848.5ZM525.539 847.5H450.462V849.5H525.539V847.5ZM451.462 848.5V771.4H449.462V848.5H451.462Z" fill="#333333" mask="url(#path-203-inside-102_240_383)"/>
<mask id="path-205-inside-103_240_383" fill="white">
<path d="M450.462 77.5H525.539V154.6H450.462V77.5Z"/>
</mask>
<path d="M450.462 154.6H449.462V155.6H450.462V154.6ZM525.539 153.6H450.462V155.6H525.539V153.6ZM451.462 154.6V77.5H449.462V154.6H451.462Z" fill="#333333" mask="url(#path-205-inside-103_240_383)"/>
<mask id="path-207-inside-104_240_383" fill="white">
<path d="M450.462 848.5H525.539V925.6H450.462V848.5Z"/>
</mask>
<path d="M450.462 925.6H449.462V926.6H450.462V925.6ZM525.539 924.6H450.462V926.6H525.539V924.6ZM451.462 925.6V848.5H449.462V925.6H451.462Z" fill="#333333" mask="url(#path-207-inside-104_240_383)"/>
<mask id="path-209-inside-105_240_383" fill="white">
<path d="M450.462 154.6H525.539V231.7H450.462V154.6Z"/>
</mask>
<path d="M450.462 231.7H449.462V232.7H450.462V231.7ZM525.539 230.7H450.462V232.7H525.539V230.7ZM451.462 231.7V154.6H449.462V231.7H451.462Z" fill="#333333" mask="url(#path-209-inside-105_240_383)"/>
<mask id="path-211-inside-106_240_383" fill="white">
<path d="M450.462 925.6H525.539V1002.7H450.462V925.6Z"/>
</mask>
<path d="M450.462 1002.7H449.462V1003.7H450.462V1002.7ZM525.539 1001.7H450.462V1003.7H525.539V1001.7ZM451.462 1002.7V925.6H449.462V1002.7H451.462Z" fill="#333333" mask="url(#path-211-inside-106_240_383)"/>
<mask id="path-213-inside-107_240_383" fill="white">
<path d="M450.462 231.7H525.539V308.8H450.462V231.7Z"/>
</mask>
<path d="M450.462 308.8H449.462V309.8H450.462V308.8ZM525.539 307.8H450.462V309.8H525.539V307.8ZM451.462 308.8V231.7H449.462V308.8H451.462Z" fill="#333333" mask="url(#path-213-inside-107_240_383)"/>
<mask id="path-215-inside-108_240_383" fill="white">
<path d="M450.462 1002.7H525.539V1079.8H450.462V1002.7Z"/>
</mask>
<path d="M450.462 1079.8H449.462V1080.8H450.462V1079.8ZM525.539 1078.8H450.462V1080.8H525.539V1078.8ZM451.462 1079.8V1002.7H449.462V1079.8H451.462Z" fill="#333333" mask="url(#path-215-inside-108_240_383)"/>
<mask id="path-217-inside-109_240_383" fill="white">
<path d="M450.462 308.8H525.539V385.9H450.462V308.8Z"/>
</mask>
<path d="M450.462 385.9H449.462V386.9H450.462V385.9ZM525.539 384.9H450.462V386.9H525.539V384.9ZM451.462 385.9V308.8H449.462V385.9H451.462Z" fill="#333333" mask="url(#path-217-inside-109_240_383)"/>
<mask id="path-219-inside-110_240_383" fill="white">
<path d="M450.462 1079.8H525.539V1156.9H450.462V1079.8Z"/>
</mask>
<path d="M450.462 1156.9H449.462V1157.9H450.462V1156.9ZM525.539 1155.9H450.462V1157.9H525.539V1155.9ZM451.462 1156.9V1079.8H449.462V1156.9H451.462Z" fill="#333333" mask="url(#path-219-inside-110_240_383)"/>
<mask id="path-221-inside-111_240_383" fill="white">
<path d="M450.462 385.9H525.539V463H450.462V385.9Z"/>
</mask>
<path d="M450.462 463H449.462V464H450.462V463ZM525.539 462H450.462V464H525.539V462ZM451.462 463V385.9H449.462V463H451.462Z" fill="#333333" mask="url(#path-221-inside-111_240_383)"/>
<mask id="path-223-inside-112_240_383" fill="white">
<path d="M450.462 1156.9H525.539V1234H450.462V1156.9Z"/>
</mask>
<path d="M450.462 1234H449.462V1235H450.462V1234ZM525.539 1233H450.462V1235H525.539V1233ZM451.462 1234V1156.9H449.462V1234H451.462Z" fill="#333333" mask="url(#path-223-inside-112_240_383)"/>
<mask id="path-225-inside-113_240_383" fill="white">
<path d="M525.538 463H600.615V540.1H525.538V463Z"/>
</mask>
<path d="M525.538 540.1H524.538V541.1H525.538V540.1ZM600.615 539.1H525.538V541.1H600.615V539.1ZM526.538 540.1V463H524.538V540.1H526.538Z" fill="#333333" mask="url(#path-225-inside-113_240_383)"/>
<mask id="path-227-inside-114_240_383" fill="white">
<path d="M525.538 540.1H600.615V617.2H525.538V540.1Z"/>
</mask>
<path d="M525.538 617.2H524.538V618.2H525.538V617.2ZM600.615 616.2H525.538V618.2H600.615V616.2ZM526.538 617.2V540.1H524.538V617.2H526.538Z" fill="#333333" mask="url(#path-227-inside-114_240_383)"/>
<mask id="path-229-inside-115_240_383" fill="white">
<path d="M525.538 617.2H600.615V694.3H525.538V617.2Z"/>
</mask>
<path d="M525.538 694.3H524.538V695.3H525.538V694.3ZM600.615 693.3H525.538V695.3H600.615V693.3ZM526.538 694.3V617.2H524.538V694.3H526.538Z" fill="#333333" mask="url(#path-229-inside-115_240_383)"/>
<mask id="path-231-inside-116_240_383" fill="white">
<path d="M525.538 694.3H600.615V771.4H525.538V694.3Z"/>
</mask>
<path d="M525.538 771.4H524.538V772.4H525.538V771.4ZM600.615 770.4H525.538V772.4H600.615V770.4ZM526.538 771.4V694.3H524.538V771.4H526.538Z" fill="#333333" mask="url(#path-231-inside-116_240_383)"/>
<mask id="path-233-inside-117_240_383" fill="white">
<path d="M525.538 0.399902H600.615V77.4999H525.538V0.399902Z"/>
</mask>
<path d="M525.538 77.4999H524.538V78.4999H525.538V77.4999ZM600.615 76.4999H525.538V78.4999H600.615V76.4999ZM526.538 77.4999V0.399902H524.538V77.4999H526.538Z" fill="#333333" mask="url(#path-233-inside-117_240_383)"/>
<mask id="path-235-inside-118_240_383" fill="white">
<path d="M525.538 771.4H600.615V848.5H525.538V771.4Z"/>
</mask>
<path d="M525.538 848.5H524.538V849.5H525.538V848.5ZM600.615 847.5H525.538V849.5H600.615V847.5ZM526.538 848.5V771.4H524.538V848.5H526.538Z" fill="#333333" mask="url(#path-235-inside-118_240_383)"/>
<mask id="path-237-inside-119_240_383" fill="white">
<path d="M525.538 77.5H600.615V154.6H525.538V77.5Z"/>
</mask>
<path d="M525.538 154.6H524.538V155.6H525.538V154.6ZM600.615 153.6H525.538V155.6H600.615V153.6ZM526.538 154.6V77.5H524.538V154.6H526.538Z" fill="#333333" mask="url(#path-237-inside-119_240_383)"/>
<mask id="path-239-inside-120_240_383" fill="white">
<path d="M525.538 848.5H600.615V925.6H525.538V848.5Z"/>
</mask>
<path d="M525.538 925.6H524.538V926.6H525.538V925.6ZM600.615 924.6H525.538V926.6H600.615V924.6ZM526.538 925.6V848.5H524.538V925.6H526.538Z" fill="#333333" mask="url(#path-239-inside-120_240_383)"/>
<mask id="path-241-inside-121_240_383" fill="white">
<path d="M525.538 154.6H600.615V231.7H525.538V154.6Z"/>
</mask>
<path d="M525.538 231.7H524.538V232.7H525.538V231.7ZM600.615 230.7H525.538V232.7H600.615V230.7ZM526.538 231.7V154.6H524.538V231.7H526.538Z" fill="#333333" mask="url(#path-241-inside-121_240_383)"/>
<mask id="path-243-inside-122_240_383" fill="white">
<path d="M525.538 925.6H600.615V1002.7H525.538V925.6Z"/>
</mask>
<path d="M525.538 1002.7H524.538V1003.7H525.538V1002.7ZM600.615 1001.7H525.538V1003.7H600.615V1001.7ZM526.538 1002.7V925.6H524.538V1002.7H526.538Z" fill="#333333" mask="url(#path-243-inside-122_240_383)"/>
<mask id="path-245-inside-123_240_383" fill="white">
<path d="M525.538 231.7H600.615V308.8H525.538V231.7Z"/>
</mask>
<path d="M525.538 308.8H524.538V309.8H525.538V308.8ZM600.615 307.8H525.538V309.8H600.615V307.8ZM526.538 308.8V231.7H524.538V308.8H526.538Z" fill="#333333" mask="url(#path-245-inside-123_240_383)"/>
<mask id="path-247-inside-124_240_383" fill="white">
<path d="M525.538 1002.7H600.615V1079.8H525.538V1002.7Z"/>
</mask>
<path d="M525.538 1079.8H524.538V1080.8H525.538V1079.8ZM600.615 1078.8H525.538V1080.8H600.615V1078.8ZM526.538 1079.8V1002.7H524.538V1079.8H526.538Z" fill="#333333" mask="url(#path-247-inside-124_240_383)"/>
<mask id="path-249-inside-125_240_383" fill="white">
<path d="M525.538 308.8H600.615V385.9H525.538V308.8Z"/>
</mask>
<path d="M525.538 385.9H524.538V386.9H525.538V385.9ZM600.615 384.9H525.538V386.9H600.615V384.9ZM526.538 385.9V308.8H524.538V385.9H526.538Z" fill="#333333" mask="url(#path-249-inside-125_240_383)"/>
<mask id="path-251-inside-126_240_383" fill="white">
<path d="M525.538 1079.8H600.615V1156.9H525.538V1079.8Z"/>
</mask>
<path d="M525.538 1156.9H524.538V1157.9H525.538V1156.9ZM600.615 1155.9H525.538V1157.9H600.615V1155.9ZM526.538 1156.9V1079.8H524.538V1156.9H526.538Z" fill="#333333" mask="url(#path-251-inside-126_240_383)"/>
<mask id="path-253-inside-127_240_383" fill="white">
<path d="M525.538 385.9H600.615V463H525.538V385.9Z"/>
</mask>
<path d="M525.538 463H524.538V464H525.538V463ZM600.615 462H525.538V464H600.615V462ZM526.538 463V385.9H524.538V463H526.538Z" fill="#333333" mask="url(#path-253-inside-127_240_383)"/>
<mask id="path-255-inside-128_240_383" fill="white">
<path d="M525.538 1156.9H600.615V1234H525.538V1156.9Z"/>
</mask>
<path d="M525.538 1234H524.538V1235H525.538V1234ZM600.615 1233H525.538V1235H600.615V1233ZM526.538 1234V1156.9H524.538V1234H526.538Z" fill="#333333" mask="url(#path-255-inside-128_240_383)"/>
<mask id="path-257-inside-129_240_383" fill="white">
<path d="M600.615 463H675.692V540.1H600.615V463Z"/>
</mask>
<path d="M600.615 540.1H599.615V541.1H600.615V540.1ZM675.692 539.1H600.615V541.1H675.692V539.1ZM601.615 540.1V463H599.615V540.1H601.615Z" fill="#333333" mask="url(#path-257-inside-129_240_383)"/>
<mask id="path-259-inside-130_240_383" fill="white">
<path d="M600.615 540.1H675.692V617.2H600.615V540.1Z"/>
</mask>
<path d="M600.615 617.2H599.615V618.2H600.615V617.2ZM675.692 616.2H600.615V618.2H675.692V616.2ZM601.615 617.2V540.1H599.615V617.2H601.615Z" fill="#333333" mask="url(#path-259-inside-130_240_383)"/>
<mask id="path-261-inside-131_240_383" fill="white">
<path d="M600.615 617.2H675.692V694.3H600.615V617.2Z"/>
</mask>
<path d="M600.615 694.3H599.615V695.3H600.615V694.3ZM675.692 693.3H600.615V695.3H675.692V693.3ZM601.615 694.3V617.2H599.615V694.3H601.615Z" fill="#333333" mask="url(#path-261-inside-131_240_383)"/>
<mask id="path-263-inside-132_240_383" fill="white">
<path d="M600.615 694.3H675.692V771.4H600.615V694.3Z"/>
</mask>
<path d="M600.615 771.4H599.615V772.4H600.615V771.4ZM675.692 770.4H600.615V772.4H675.692V770.4ZM601.615 771.4V694.3H599.615V771.4H601.615Z" fill="#333333" mask="url(#path-263-inside-132_240_383)"/>
<mask id="path-265-inside-133_240_383" fill="white">
<path d="M600.615 0.399902H675.692V77.4999H600.615V0.399902Z"/>
</mask>
<path d="M600.615 77.4999H599.615V78.4999H600.615V77.4999ZM675.692 76.4999H600.615V78.4999H675.692V76.4999ZM601.615 77.4999V0.399902H599.615V77.4999H601.615Z" fill="#333333" mask="url(#path-265-inside-133_240_383)"/>
<mask id="path-267-inside-134_240_383" fill="white">
<path d="M600.615 771.4H675.692V848.5H600.615V771.4Z"/>
</mask>
<path d="M600.615 848.5H599.615V849.5H600.615V848.5ZM675.692 847.5H600.615V849.5H675.692V847.5ZM601.615 848.5V771.4H599.615V848.5H601.615Z" fill="#333333" mask="url(#path-267-inside-134_240_383)"/>
<mask id="path-269-inside-135_240_383" fill="white">
<path d="M600.615 77.5H675.692V154.6H600.615V77.5Z"/>
</mask>
<path d="M600.615 154.6H599.615V155.6H600.615V154.6ZM675.692 153.6H600.615V155.6H675.692V153.6ZM601.615 154.6V77.5H599.615V154.6H601.615Z" fill="#333333" mask="url(#path-269-inside-135_240_383)"/>
<mask id="path-271-inside-136_240_383" fill="white">
<path d="M600.615 848.5H675.692V925.6H600.615V848.5Z"/>
</mask>
<path d="M600.615 925.6H599.615V926.6H600.615V925.6ZM675.692 924.6H600.615V926.6H675.692V924.6ZM601.615 925.6V848.5H599.615V925.6H601.615Z" fill="#333333" mask="url(#path-271-inside-136_240_383)"/>
<mask id="path-273-inside-137_240_383" fill="white">
<path d="M600.615 154.6H675.692V231.7H600.615V154.6Z"/>
</mask>
<path d="M600.615 231.7H599.615V232.7H600.615V231.7ZM675.692 230.7H600.615V232.7H675.692V230.7ZM601.615 231.7V154.6H599.615V231.7H601.615Z" fill="#333333" mask="url(#path-273-inside-137_240_383)"/>
<mask id="path-275-inside-138_240_383" fill="white">
<path d="M600.615 925.6H675.692V1002.7H600.615V925.6Z"/>
</mask>
<path d="M600.615 1002.7H599.615V1003.7H600.615V1002.7ZM675.692 1001.7H600.615V1003.7H675.692V1001.7ZM601.615 1002.7V925.6H599.615V1002.7H601.615Z" fill="#333333" mask="url(#path-275-inside-138_240_383)"/>
<mask id="path-277-inside-139_240_383" fill="white">
<path d="M600.615 231.7H675.692V308.8H600.615V231.7Z"/>
</mask>
<path d="M600.615 308.8H599.615V309.8H600.615V308.8ZM675.692 307.8H600.615V309.8H675.692V307.8ZM601.615 308.8V231.7H599.615V308.8H601.615Z" fill="#333333" mask="url(#path-277-inside-139_240_383)"/>
<mask id="path-279-inside-140_240_383" fill="white">
<path d="M600.615 1002.7H675.692V1079.8H600.615V1002.7Z"/>
</mask>
<path d="M600.615 1079.8H599.615V1080.8H600.615V1079.8ZM675.692 1078.8H600.615V1080.8H675.692V1078.8ZM601.615 1079.8V1002.7H599.615V1079.8H601.615Z" fill="#333333" mask="url(#path-279-inside-140_240_383)"/>
<mask id="path-281-inside-141_240_383" fill="white">
<path d="M600.615 308.8H675.692V385.9H600.615V308.8Z"/>
</mask>
<path d="M600.615 385.9H599.615V386.9H600.615V385.9ZM675.692 384.9H600.615V386.9H675.692V384.9ZM601.615 385.9V308.8H599.615V385.9H601.615Z" fill="#333333" mask="url(#path-281-inside-141_240_383)"/>
<mask id="path-283-inside-142_240_383" fill="white">
<path d="M600.615 1079.8H675.692V1156.9H600.615V1079.8Z"/>
</mask>
<path d="M600.615 1156.9H599.615V1157.9H600.615V1156.9ZM675.692 1155.9H600.615V1157.9H675.692V1155.9ZM601.615 1156.9V1079.8H599.615V1156.9H601.615Z" fill="#333333" mask="url(#path-283-inside-142_240_383)"/>
<mask id="path-285-inside-143_240_383" fill="white">
<path d="M600.615 385.9H675.692V463H600.615V385.9Z"/>
</mask>
<path d="M600.615 463H599.615V464H600.615V463ZM675.692 462H600.615V464H675.692V462ZM601.615 463V385.9H599.615V463H601.615Z" fill="#333333" mask="url(#path-285-inside-143_240_383)"/>
<mask id="path-287-inside-144_240_383" fill="white">
<path d="M600.615 1156.9H675.692V1234H600.615V1156.9Z"/>
</mask>
<path d="M600.615 1234H599.615V1235H600.615V1234ZM675.692 1233H600.615V1235H675.692V1233ZM601.615 1234V1156.9H599.615V1234H601.615Z" fill="#333333" mask="url(#path-287-inside-144_240_383)"/>
<mask id="path-289-inside-145_240_383" fill="white">
<path d="M675.692 463H750.769V540.1H675.692V463Z"/>
</mask>
<path d="M675.692 540.1H674.692V541.1H675.692V540.1ZM750.769 539.1H675.692V541.1H750.769V539.1ZM676.692 540.1V463H674.692V540.1H676.692Z" fill="#333333" mask="url(#path-289-inside-145_240_383)"/>
<mask id="path-291-inside-146_240_383" fill="white">
<path d="M675.692 540.1H750.769V617.2H675.692V540.1Z"/>
</mask>
<path d="M675.692 617.2H674.692V618.2H675.692V617.2ZM750.769 616.2H675.692V618.2H750.769V616.2ZM676.692 617.2V540.1H674.692V617.2H676.692Z" fill="#333333" mask="url(#path-291-inside-146_240_383)"/>
<mask id="path-293-inside-147_240_383" fill="white">
<path d="M675.692 617.2H750.769V694.3H675.692V617.2Z"/>
</mask>
<path d="M675.692 694.3H674.692V695.3H675.692V694.3ZM750.769 693.3H675.692V695.3H750.769V693.3ZM676.692 694.3V617.2H674.692V694.3H676.692Z" fill="#333333" mask="url(#path-293-inside-147_240_383)"/>
<mask id="path-295-inside-148_240_383" fill="white">
<path d="M675.692 694.3H750.769V771.4H675.692V694.3Z"/>
</mask>
<path d="M675.692 771.4H674.692V772.4H675.692V771.4ZM750.769 770.4H675.692V772.4H750.769V770.4ZM676.692 771.4V694.3H674.692V771.4H676.692Z" fill="#333333" mask="url(#path-295-inside-148_240_383)"/>
<mask id="path-297-inside-149_240_383" fill="white">
<path d="M675.692 0.399902H750.769V77.4999H675.692V0.399902Z"/>
</mask>
<path d="M675.692 77.4999H674.692V78.4999H675.692V77.4999ZM750.769 76.4999H675.692V78.4999H750.769V76.4999ZM676.692 77.4999V0.399902H674.692V77.4999H676.692Z" fill="#333333" mask="url(#path-297-inside-149_240_383)"/>
<mask id="path-299-inside-150_240_383" fill="white">
<path d="M675.692 771.4H750.769V848.5H675.692V771.4Z"/>
</mask>
<path d="M675.692 848.5H674.692V849.5H675.692V848.5ZM750.769 847.5H675.692V849.5H750.769V847.5ZM676.692 848.5V771.4H674.692V848.5H676.692Z" fill="#333333" mask="url(#path-299-inside-150_240_383)"/>
<mask id="path-301-inside-151_240_383" fill="white">
<path d="M675.692 77.5H750.769V154.6H675.692V77.5Z"/>
</mask>
<path d="M675.692 154.6H674.692V155.6H675.692V154.6ZM750.769 153.6H675.692V155.6H750.769V153.6ZM676.692 154.6V77.5H674.692V154.6H676.692Z" fill="#333333" mask="url(#path-301-inside-151_240_383)"/>
<mask id="path-303-inside-152_240_383" fill="white">
<path d="M675.692 848.5H750.769V925.6H675.692V848.5Z"/>
</mask>
<path d="M675.692 925.6H674.692V926.6H675.692V925.6ZM750.769 924.6H675.692V926.6H750.769V924.6ZM676.692 925.6V848.5H674.692V925.6H676.692Z" fill="#333333" mask="url(#path-303-inside-152_240_383)"/>
<mask id="path-305-inside-153_240_383" fill="white">
<path d="M675.692 154.6H750.769V231.7H675.692V154.6Z"/>
</mask>
<path d="M675.692 231.7H674.692V232.7H675.692V231.7ZM750.769 230.7H675.692V232.7H750.769V230.7ZM676.692 231.7V154.6H674.692V231.7H676.692Z" fill="#333333" mask="url(#path-305-inside-153_240_383)"/>
<mask id="path-307-inside-154_240_383" fill="white">
<path d="M675.692 925.6H750.769V1002.7H675.692V925.6Z"/>
</mask>
<path d="M675.692 1002.7H674.692V1003.7H675.692V1002.7ZM750.769 1001.7H675.692V1003.7H750.769V1001.7ZM676.692 1002.7V925.6H674.692V1002.7H676.692Z" fill="#333333" mask="url(#path-307-inside-154_240_383)"/>
<mask id="path-309-inside-155_240_383" fill="white">
<path d="M675.692 231.7H750.769V308.8H675.692V231.7Z"/>
</mask>
<path d="M675.692 308.8H674.692V309.8H675.692V308.8ZM750.769 307.8H675.692V309.8H750.769V307.8ZM676.692 308.8V231.7H674.692V308.8H676.692Z" fill="#333333" mask="url(#path-309-inside-155_240_383)"/>
<mask id="path-311-inside-156_240_383" fill="white">
<path d="M675.692 1002.7H750.769V1079.8H675.692V1002.7Z"/>
</mask>
<path d="M675.692 1079.8H674.692V1080.8H675.692V1079.8ZM750.769 1078.8H675.692V1080.8H750.769V1078.8ZM676.692 1079.8V1002.7H674.692V1079.8H676.692Z" fill="#333333" mask="url(#path-311-inside-156_240_383)"/>
<mask id="path-313-inside-157_240_383" fill="white">
<path d="M675.692 308.8H750.769V385.9H675.692V308.8Z"/>
</mask>
<path d="M675.692 385.9H674.692V386.9H675.692V385.9ZM750.769 384.9H675.692V386.9H750.769V384.9ZM676.692 385.9V308.8H674.692V385.9H676.692Z" fill="#333333" mask="url(#path-313-inside-157_240_383)"/>
<mask id="path-315-inside-158_240_383" fill="white">
<path d="M675.692 1079.8H750.769V1156.9H675.692V1079.8Z"/>
</mask>
<path d="M675.692 1156.9H674.692V1157.9H675.692V1156.9ZM750.769 1155.9H675.692V1157.9H750.769V1155.9ZM676.692 1156.9V1079.8H674.692V1156.9H676.692Z" fill="#333333" mask="url(#path-315-inside-158_240_383)"/>
<mask id="path-317-inside-159_240_383" fill="white">
<path d="M675.692 385.9H750.769V463H675.692V385.9Z"/>
</mask>
<path d="M675.692 463H674.692V464H675.692V463ZM750.769 462H675.692V464H750.769V462ZM676.692 463V385.9H674.692V463H676.692Z" fill="#333333" mask="url(#path-317-inside-159_240_383)"/>
<mask id="path-319-inside-160_240_383" fill="white">
<path d="M675.692 1156.9H750.769V1234H675.692V1156.9Z"/>
</mask>
<path d="M675.692 1234H674.692V1235H675.692V1234ZM750.769 1233H675.692V1235H750.769V1233ZM676.692 1234V1156.9H674.692V1234H676.692Z" fill="#333333" mask="url(#path-319-inside-160_240_383)"/>
<mask id="path-321-inside-161_240_383" fill="white">
<path d="M750.77 463H825.846V540.1H750.77V463Z"/>
</mask>
<path d="M750.77 540.1H749.77V541.1H750.77V540.1ZM825.846 539.1H750.77V541.1H825.846V539.1ZM751.77 540.1V463H749.77V540.1H751.77Z" fill="#333333" mask="url(#path-321-inside-161_240_383)"/>
<mask id="path-323-inside-162_240_383" fill="white">
<path d="M750.77 540.1H825.846V617.2H750.77V540.1Z"/>
</mask>
<path d="M750.77 617.2H749.77V618.2H750.77V617.2ZM825.846 616.2H750.77V618.2H825.846V616.2ZM751.77 617.2V540.1H749.77V617.2H751.77Z" fill="#333333" mask="url(#path-323-inside-162_240_383)"/>
<mask id="path-325-inside-163_240_383" fill="white">
<path d="M750.77 617.2H825.846V694.3H750.77V617.2Z"/>
</mask>
<path d="M750.77 694.3H749.77V695.3H750.77V694.3ZM825.846 693.3H750.77V695.3H825.846V693.3ZM751.77 694.3V617.2H749.77V694.3H751.77Z" fill="#333333" mask="url(#path-325-inside-163_240_383)"/>
<mask id="path-327-inside-164_240_383" fill="white">
<path d="M750.77 694.3H825.846V771.4H750.77V694.3Z"/>
</mask>
<path d="M750.77 771.4H749.77V772.4H750.77V771.4ZM825.846 770.4H750.77V772.4H825.846V770.4ZM751.77 771.4V694.3H749.77V771.4H751.77Z" fill="#333333" mask="url(#path-327-inside-164_240_383)"/>
<mask id="path-329-inside-165_240_383" fill="white">
<path d="M750.77 0.399902H825.846V77.4999H750.77V0.399902Z"/>
</mask>
<path d="M750.77 77.4999H749.77V78.4999H750.77V77.4999ZM825.846 76.4999H750.77V78.4999H825.846V76.4999ZM751.77 77.4999V0.399902H749.77V77.4999H751.77Z" fill="#333333" mask="url(#path-329-inside-165_240_383)"/>
<mask id="path-331-inside-166_240_383" fill="white">
<path d="M750.77 771.4H825.846V848.5H750.77V771.4Z"/>
</mask>
<path d="M750.77 848.5H749.77V849.5H750.77V848.5ZM825.846 847.5H750.77V849.5H825.846V847.5ZM751.77 848.5V771.4H749.77V848.5H751.77Z" fill="#333333" mask="url(#path-331-inside-166_240_383)"/>
<mask id="path-333-inside-167_240_383" fill="white">
<path d="M750.77 77.5H825.846V154.6H750.77V77.5Z"/>
</mask>
<path d="M750.77 154.6H749.77V155.6H750.77V154.6ZM825.846 153.6H750.77V155.6H825.846V153.6ZM751.77 154.6V77.5H749.77V154.6H751.77Z" fill="#333333" mask="url(#path-333-inside-167_240_383)"/>
<mask id="path-335-inside-168_240_383" fill="white">
<path d="M750.77 848.5H825.846V925.6H750.77V848.5Z"/>
</mask>
<path d="M750.77 925.6H749.77V926.6H750.77V925.6ZM825.846 924.6H750.77V926.6H825.846V924.6ZM751.77 925.6V848.5H749.77V925.6H751.77Z" fill="#333333" mask="url(#path-335-inside-168_240_383)"/>
<mask id="path-337-inside-169_240_383" fill="white">
<path d="M750.77 154.6H825.846V231.7H750.77V154.6Z"/>
</mask>
<path d="M750.77 231.7H749.77V232.7H750.77V231.7ZM825.846 230.7H750.77V232.7H825.846V230.7ZM751.77 231.7V154.6H749.77V231.7H751.77Z" fill="#333333" mask="url(#path-337-inside-169_240_383)"/>
<mask id="path-339-inside-170_240_383" fill="white">
<path d="M750.77 925.6H825.846V1002.7H750.77V925.6Z"/>
</mask>
<path d="M750.77 1002.7H749.77V1003.7H750.77V1002.7ZM825.846 1001.7H750.77V1003.7H825.846V1001.7ZM751.77 1002.7V925.6H749.77V1002.7H751.77Z" fill="#333333" mask="url(#path-339-inside-170_240_383)"/>
<mask id="path-341-inside-171_240_383" fill="white">
<path d="M750.77 231.7H825.846V308.8H750.77V231.7Z"/>
</mask>
<path d="M750.77 308.8H749.77V309.8H750.77V308.8ZM825.846 307.8H750.77V309.8H825.846V307.8ZM751.77 308.8V231.7H749.77V308.8H751.77Z" fill="#333333" mask="url(#path-341-inside-171_240_383)"/>
<mask id="path-343-inside-172_240_383" fill="white">
<path d="M750.77 1002.7H825.846V1079.8H750.77V1002.7Z"/>
</mask>
<path d="M750.77 1079.8H749.77V1080.8H750.77V1079.8ZM825.846 1078.8H750.77V1080.8H825.846V1078.8ZM751.77 1079.8V1002.7H749.77V1079.8H751.77Z" fill="#333333" mask="url(#path-343-inside-172_240_383)"/>
<mask id="path-345-inside-173_240_383" fill="white">
<path d="M750.77 308.8H825.846V385.9H750.77V308.8Z"/>
</mask>
<path d="M750.77 385.9H749.77V386.9H750.77V385.9ZM825.846 384.9H750.77V386.9H825.846V384.9ZM751.77 385.9V308.8H749.77V385.9H751.77Z" fill="#333333" mask="url(#path-345-inside-173_240_383)"/>
<mask id="path-347-inside-174_240_383" fill="white">
<path d="M750.77 1079.8H825.846V1156.9H750.77V1079.8Z"/>
</mask>
<path d="M750.77 1156.9H749.77V1157.9H750.77V1156.9ZM825.846 1155.9H750.77V1157.9H825.846V1155.9ZM751.77 1156.9V1079.8H749.77V1156.9H751.77Z" fill="#333333" mask="url(#path-347-inside-174_240_383)"/>
<mask id="path-349-inside-175_240_383" fill="white">
<path d="M750.77 385.9H825.846V463H750.77V385.9Z"/>
</mask>
<path d="M750.77 463H749.77V464H750.77V463ZM825.846 462H750.77V464H825.846V462ZM751.77 463V385.9H749.77V463H751.77Z" fill="#333333" mask="url(#path-349-inside-175_240_383)"/>
<mask id="path-351-inside-176_240_383" fill="white">
<path d="M750.77 1156.9H825.846V1234H750.77V1156.9Z"/>
</mask>
<path d="M750.77 1234H749.77V1235H750.77V1234ZM825.846 1233H750.77V1235H825.846V1233ZM751.77 1234V1156.9H749.77V1234H751.77Z" fill="#333333" mask="url(#path-351-inside-176_240_383)"/>
<mask id="path-353-inside-177_240_383" fill="white">
<path d="M825.846 463H900.923V540.1H825.846V463Z"/>
</mask>
<path d="M825.846 540.1H824.846V541.1H825.846V540.1ZM900.923 539.1H825.846V541.1H900.923V539.1ZM826.846 540.1V463H824.846V540.1H826.846Z" fill="#333333" mask="url(#path-353-inside-177_240_383)"/>
<mask id="path-355-inside-178_240_383" fill="white">
<path d="M825.846 540.1H900.923V617.2H825.846V540.1Z"/>
</mask>
<path d="M825.846 617.2H824.846V618.2H825.846V617.2ZM900.923 616.2H825.846V618.2H900.923V616.2ZM826.846 617.2V540.1H824.846V617.2H826.846Z" fill="#333333" mask="url(#path-355-inside-178_240_383)"/>
<mask id="path-357-inside-179_240_383" fill="white">
<path d="M825.846 617.2H900.923V694.3H825.846V617.2Z"/>
</mask>
<path d="M825.846 694.3H824.846V695.3H825.846V694.3ZM900.923 693.3H825.846V695.3H900.923V693.3ZM826.846 694.3V617.2H824.846V694.3H826.846Z" fill="#333333" mask="url(#path-357-inside-179_240_383)"/>
<mask id="path-359-inside-180_240_383" fill="white">
<path d="M825.846 694.3H900.923V771.4H825.846V694.3Z"/>
</mask>
<path d="M825.846 771.4H824.846V772.4H825.846V771.4ZM900.923 770.4H825.846V772.4H900.923V770.4ZM826.846 771.4V694.3H824.846V771.4H826.846Z" fill="#333333" mask="url(#path-359-inside-180_240_383)"/>
<mask id="path-361-inside-181_240_383" fill="white">
<path d="M825.846 0.399902H900.923V77.4999H825.846V0.399902Z"/>
</mask>
<path d="M825.846 77.4999H824.846V78.4999H825.846V77.4999ZM900.923 76.4999H825.846V78.4999H900.923V76.4999ZM826.846 77.4999V0.399902H824.846V77.4999H826.846Z" fill="#333333" mask="url(#path-361-inside-181_240_383)"/>
<mask id="path-363-inside-182_240_383" fill="white">
<path d="M825.846 771.4H900.923V848.5H825.846V771.4Z"/>
</mask>
<path d="M825.846 848.5H824.846V849.5H825.846V848.5ZM900.923 847.5H825.846V849.5H900.923V847.5ZM826.846 848.5V771.4H824.846V848.5H826.846Z" fill="#333333" mask="url(#path-363-inside-182_240_383)"/>
<mask id="path-365-inside-183_240_383" fill="white">
<path d="M825.846 77.5H900.923V154.6H825.846V77.5Z"/>
</mask>
<path d="M825.846 154.6H824.846V155.6H825.846V154.6ZM900.923 153.6H825.846V155.6H900.923V153.6ZM826.846 154.6V77.5H824.846V154.6H826.846Z" fill="#333333" mask="url(#path-365-inside-183_240_383)"/>
<mask id="path-367-inside-184_240_383" fill="white">
<path d="M825.846 848.5H900.923V925.6H825.846V848.5Z"/>
</mask>
<path d="M825.846 925.6H824.846V926.6H825.846V925.6ZM900.923 924.6H825.846V926.6H900.923V924.6ZM826.846 925.6V848.5H824.846V925.6H826.846Z" fill="#333333" mask="url(#path-367-inside-184_240_383)"/>
<mask id="path-369-inside-185_240_383" fill="white">
<path d="M825.846 154.6H900.923V231.7H825.846V154.6Z"/>
</mask>
<path d="M825.846 231.7H824.846V232.7H825.846V231.7ZM900.923 230.7H825.846V232.7H900.923V230.7ZM826.846 231.7V154.6H824.846V231.7H826.846Z" fill="#333333" mask="url(#path-369-inside-185_240_383)"/>
<mask id="path-371-inside-186_240_383" fill="white">
<path d="M825.846 925.6H900.923V1002.7H825.846V925.6Z"/>
</mask>
<path d="M825.846 1002.7H824.846V1003.7H825.846V1002.7ZM900.923 1001.7H825.846V1003.7H900.923V1001.7ZM826.846 1002.7V925.6H824.846V1002.7H826.846Z" fill="#333333" mask="url(#path-371-inside-186_240_383)"/>
<mask id="path-373-inside-187_240_383" fill="white">
<path d="M825.846 231.7H900.923V308.8H825.846V231.7Z"/>
</mask>
<path d="M825.846 308.8H824.846V309.8H825.846V308.8ZM900.923 307.8H825.846V309.8H900.923V307.8ZM826.846 308.8V231.7H824.846V308.8H826.846Z" fill="#333333" mask="url(#path-373-inside-187_240_383)"/>
<mask id="path-375-inside-188_240_383" fill="white">
<path d="M825.846 1002.7H900.923V1079.8H825.846V1002.7Z"/>
</mask>
<path d="M825.846 1079.8H824.846V1080.8H825.846V1079.8ZM900.923 1078.8H825.846V1080.8H900.923V1078.8ZM826.846 1079.8V1002.7H824.846V1079.8H826.846Z" fill="#333333" mask="url(#path-375-inside-188_240_383)"/>
<mask id="path-377-inside-189_240_383" fill="white">
<path d="M825.846 308.8H900.923V385.9H825.846V308.8Z"/>
</mask>
<path d="M825.846 385.9H824.846V386.9H825.846V385.9ZM900.923 384.9H825.846V386.9H900.923V384.9ZM826.846 385.9V308.8H824.846V385.9H826.846Z" fill="#333333" mask="url(#path-377-inside-189_240_383)"/>
<mask id="path-379-inside-190_240_383" fill="white">
<path d="M825.846 1079.8H900.923V1156.9H825.846V1079.8Z"/>
</mask>
<path d="M825.846 1156.9H824.846V1157.9H825.846V1156.9ZM900.923 1155.9H825.846V1157.9H900.923V1155.9ZM826.846 1156.9V1079.8H824.846V1156.9H826.846Z" fill="#333333" mask="url(#path-379-inside-190_240_383)"/>
<mask id="path-381-inside-191_240_383" fill="white">
<path d="M825.846 385.9H900.923V463H825.846V385.9Z"/>
</mask>
<path d="M825.846 463H824.846V464H825.846V463ZM900.923 462H825.846V464H900.923V462ZM826.846 463V385.9H824.846V463H826.846Z" fill="#333333" mask="url(#path-381-inside-191_240_383)"/>
<mask id="path-383-inside-192_240_383" fill="white">
<path d="M825.846 1156.9H900.923V1234H825.846V1156.9Z"/>
</mask>
<path d="M825.846 1234H824.846V1235H825.846V1234ZM900.923 1233H825.846V1235H900.923V1233ZM826.846 1234V1156.9H824.846V1234H826.846Z" fill="#333333" mask="url(#path-383-inside-192_240_383)"/>
<mask id="path-385-inside-193_240_383" fill="white">
<path d="M900.923 463H976V540.1H900.923V463Z"/>
</mask>
<path d="M976 540.1V541.1H977V540.1H976ZM900.923 540.1H899.923V541.1H900.923V540.1ZM975 463V540.1H977V463H975ZM976 539.1H900.923V541.1H976V539.1ZM901.923 540.1V463H899.923V540.1H901.923Z" fill="#333333" mask="url(#path-385-inside-193_240_383)"/>
<mask id="path-387-inside-194_240_383" fill="white">
<path d="M900.923 540.1H976V617.2H900.923V540.1Z"/>
</mask>
<path d="M976 617.2V618.2H977V617.2H976ZM900.923 617.2H899.923V618.2H900.923V617.2ZM975 540.1V617.2H977V540.1H975ZM976 616.2H900.923V618.2H976V616.2ZM901.923 617.2V540.1H899.923V617.2H901.923Z" fill="#333333" mask="url(#path-387-inside-194_240_383)"/>
<mask id="path-389-inside-195_240_383" fill="white">
<path d="M900.923 617.2H976V694.3H900.923V617.2Z"/>
</mask>
<path d="M976 694.3V695.3H977V694.3H976ZM900.923 694.3H899.923V695.3H900.923V694.3ZM975 617.2V694.3H977V617.2H975ZM976 693.3H900.923V695.3H976V693.3ZM901.923 694.3V617.2H899.923V694.3H901.923Z" fill="#333333" mask="url(#path-389-inside-195_240_383)"/>
<mask id="path-391-inside-196_240_383" fill="white">
<path d="M900.923 694.3H976V771.4H900.923V694.3Z"/>
</mask>
<path d="M976 771.4V772.4H977V771.4H976ZM900.923 771.4H899.923V772.4H900.923V771.4ZM975 694.3V771.4H977V694.3H975ZM976 770.4H900.923V772.4H976V770.4ZM901.923 771.4V694.3H899.923V771.4H901.923Z" fill="#333333" mask="url(#path-391-inside-196_240_383)"/>
<mask id="path-393-inside-197_240_383" fill="white">
<path d="M900.923 0.399902H976V77.4999H900.923V0.399902Z"/>
</mask>
<path d="M976 77.4999V78.4999H977V77.4999H976ZM900.923 77.4999H899.923V78.4999H900.923V77.4999ZM975 0.399902V77.4999H977V0.399902H975ZM976 76.4999H900.923V78.4999H976V76.4999ZM901.923 77.4999V0.399902H899.923V77.4999H901.923Z" fill="#333333" mask="url(#path-393-inside-197_240_383)"/>
<mask id="path-395-inside-198_240_383" fill="white">
<path d="M900.923 771.4H976V848.5H900.923V771.4Z"/>
</mask>
<path d="M976 848.5V849.5H977V848.5H976ZM900.923 848.5H899.923V849.5H900.923V848.5ZM975 771.4V848.5H977V771.4H975ZM976 847.5H900.923V849.5H976V847.5ZM901.923 848.5V771.4H899.923V848.5H901.923Z" fill="#333333" mask="url(#path-395-inside-198_240_383)"/>
<mask id="path-397-inside-199_240_383" fill="white">
<path d="M900.923 77.5H976V154.6H900.923V77.5Z"/>
</mask>
<path d="M976 154.6V155.6H977V154.6H976ZM900.923 154.6H899.923V155.6H900.923V154.6ZM975 77.5V154.6H977V77.5H975ZM976 153.6H900.923V155.6H976V153.6ZM901.923 154.6V77.5H899.923V154.6H901.923Z" fill="#333333" mask="url(#path-397-inside-199_240_383)"/>
<mask id="path-399-inside-200_240_383" fill="white">
<path d="M900.923 848.5H976V925.6H900.923V848.5Z"/>
</mask>
<path d="M976 925.6V926.6H977V925.6H976ZM900.923 925.6H899.923V926.6H900.923V925.6ZM975 848.5V925.6H977V848.5H975ZM976 924.6H900.923V926.6H976V924.6ZM901.923 925.6V848.5H899.923V925.6H901.923Z" fill="#333333" mask="url(#path-399-inside-200_240_383)"/>
<mask id="path-401-inside-201_240_383" fill="white">
<path d="M900.923 154.6H976V231.7H900.923V154.6Z"/>
</mask>
<path d="M976 231.7V232.7H977V231.7H976ZM900.923 231.7H899.923V232.7H900.923V231.7ZM975 154.6V231.7H977V154.6H975ZM976 230.7H900.923V232.7H976V230.7ZM901.923 231.7V154.6H899.923V231.7H901.923Z" fill="#333333" mask="url(#path-401-inside-201_240_383)"/>
<mask id="path-403-inside-202_240_383" fill="white">
<path d="M900.923 925.6H976V1002.7H900.923V925.6Z"/>
</mask>
<path d="M976 1002.7V1003.7H977V1002.7H976ZM900.923 1002.7H899.923V1003.7H900.923V1002.7ZM975 925.6V1002.7H977V925.6H975ZM976 1001.7H900.923V1003.7H976V1001.7ZM901.923 1002.7V925.6H899.923V1002.7H901.923Z" fill="#333333" mask="url(#path-403-inside-202_240_383)"/>
<mask id="path-405-inside-203_240_383" fill="white">
<path d="M900.923 231.7H976V308.8H900.923V231.7Z"/>
</mask>
<path d="M976 308.8V309.8H977V308.8H976ZM900.923 308.8H899.923V309.8H900.923V308.8ZM975 231.7V308.8H977V231.7H975ZM976 307.8H900.923V309.8H976V307.8ZM901.923 308.8V231.7H899.923V308.8H901.923Z" fill="#333333" mask="url(#path-405-inside-203_240_383)"/>
<mask id="path-407-inside-204_240_383" fill="white">
<path d="M900.923 1002.7H976V1079.8H900.923V1002.7Z"/>
</mask>
<path d="M976 1079.8V1080.8H977V1079.8H976ZM900.923 1079.8H899.923V1080.8H900.923V1079.8ZM975 1002.7V1079.8H977V1002.7H975ZM976 1078.8H900.923V1080.8H976V1078.8ZM901.923 1079.8V1002.7H899.923V1079.8H901.923Z" fill="#333333" mask="url(#path-407-inside-204_240_383)"/>
<mask id="path-409-inside-205_240_383" fill="white">
<path d="M900.923 308.8H976V385.9H900.923V308.8Z"/>
</mask>
<path d="M976 385.9V386.9H977V385.9H976ZM900.923 385.9H899.923V386.9H900.923V385.9ZM975 308.8V385.9H977V308.8H975ZM976 384.9H900.923V386.9H976V384.9ZM901.923 385.9V308.8H899.923V385.9H901.923Z" fill="#333333" mask="url(#path-409-inside-205_240_383)"/>
<mask id="path-411-inside-206_240_383" fill="white">
<path d="M900.923 1079.8H976V1156.9H900.923V1079.8Z"/>
</mask>
<path d="M976 1156.9V1157.9H977V1156.9H976ZM900.923 1156.9H899.923V1157.9H900.923V1156.9ZM975 1079.8V1156.9H977V1079.8H975ZM976 1155.9H900.923V1157.9H976V1155.9ZM901.923 1156.9V1079.8H899.923V1156.9H901.923Z" fill="#333333" mask="url(#path-411-inside-206_240_383)"/>
<mask id="path-413-inside-207_240_383" fill="white">
<path d="M900.923 385.9H976V463H900.923V385.9Z"/>
</mask>
<path d="M976 463V464H977V463H976ZM900.923 463H899.923V464H900.923V463ZM975 385.9V463H977V385.9H975ZM976 462H900.923V464H976V462ZM901.923 463V385.9H899.923V463H901.923Z" fill="#333333" mask="url(#path-413-inside-207_240_383)"/>
<mask id="path-415-inside-208_240_383" fill="white">
<path d="M900.923 1156.9H976V1234H900.923V1156.9Z"/>
</mask>
<path d="M976 1234V1235H977V1234H976ZM900.923 1234H899.923V1235H900.923V1234ZM975 1156.9V1234H977V1156.9H975ZM976 1233H900.923V1235H976V1233ZM901.923 1234V1156.9H899.923V1234H901.923Z" fill="#333333" mask="url(#path-415-inside-208_240_383)"/>
<mask id="path-417-inside-209_240_383" fill="white">
<path d="M975 463H1050.08V540.1H975V463Z"/>
</mask>
<path d="M1050.08 539.1H975V541.1H1050.08V539.1Z" fill="#333333" mask="url(#path-417-inside-209_240_383)"/>
<mask id="path-419-inside-210_240_383" fill="white">
<path d="M975 540.1H1050.08V617.2H975V540.1Z"/>
</mask>
<path d="M1050.08 616.2H975V618.2H1050.08V616.2Z" fill="#333333" mask="url(#path-419-inside-210_240_383)"/>
<mask id="path-421-inside-211_240_383" fill="white">
<path d="M975 617.2H1050.08V694.3H975V617.2Z"/>
</mask>
<path d="M1050.08 693.3H975V695.3H1050.08V693.3Z" fill="#333333" mask="url(#path-421-inside-211_240_383)"/>
<mask id="path-423-inside-212_240_383" fill="white">
<path d="M975 694.3H1050.08V771.4H975V694.3Z"/>
</mask>
<path d="M1050.08 770.4H975V772.4H1050.08V770.4Z" fill="#333333" mask="url(#path-423-inside-212_240_383)"/>
<mask id="path-425-inside-213_240_383" fill="white">
<path d="M975 0.399902H1050.08V77.4999H975V0.399902Z"/>
</mask>
<path d="M1050.08 76.4999H975V78.4999H1050.08V76.4999Z" fill="#333333" mask="url(#path-425-inside-213_240_383)"/>
<mask id="path-427-inside-214_240_383" fill="white">
<path d="M975 771.4H1050.08V848.5H975V771.4Z"/>
</mask>
<path d="M1050.08 847.5H975V849.5H1050.08V847.5Z" fill="#333333" mask="url(#path-427-inside-214_240_383)"/>
<mask id="path-429-inside-215_240_383" fill="white">
<path d="M975 77.5H1050.08V154.6H975V77.5Z"/>
</mask>
<path d="M1050.08 153.6H975V155.6H1050.08V153.6Z" fill="#333333" mask="url(#path-429-inside-215_240_383)"/>
<mask id="path-431-inside-216_240_383" fill="white">
<path d="M975 848.5H1050.08V925.6H975V848.5Z"/>
</mask>
<path d="M1050.08 924.6H975V926.6H1050.08V924.6Z" fill="#333333" mask="url(#path-431-inside-216_240_383)"/>
<mask id="path-433-inside-217_240_383" fill="white">
<path d="M975 154.6H1050.08V231.7H975V154.6Z"/>
</mask>
<path d="M1050.08 230.7H975V232.7H1050.08V230.7Z" fill="#333333" mask="url(#path-433-inside-217_240_383)"/>
<mask id="path-435-inside-218_240_383" fill="white">
<path d="M975 925.6H1050.08V1002.7H975V925.6Z"/>
</mask>
<path d="M1050.08 1001.7H975V1003.7H1050.08V1001.7Z" fill="#333333" mask="url(#path-435-inside-218_240_383)"/>
<mask id="path-437-inside-219_240_383" fill="white">
<path d="M975 231.7H1050.08V308.8H975V231.7Z"/>
</mask>
<path d="M1050.08 307.8H975V309.8H1050.08V307.8Z" fill="#333333" mask="url(#path-437-inside-219_240_383)"/>
<mask id="path-439-inside-220_240_383" fill="white">
<path d="M975 1002.7H1050.08V1079.8H975V1002.7Z"/>
</mask>
<path d="M1050.08 1078.8H975V1080.8H1050.08V1078.8Z" fill="#333333" mask="url(#path-439-inside-220_240_383)"/>
<mask id="path-441-inside-221_240_383" fill="white">
<path d="M975 308.8H1050.08V385.9H975V308.8Z"/>
</mask>
<path d="M1050.08 384.9H975V386.9H1050.08V384.9Z" fill="#333333" mask="url(#path-441-inside-221_240_383)"/>
<mask id="path-443-inside-222_240_383" fill="white">
<path d="M975 1079.8H1050.08V1156.9H975V1079.8Z"/>
</mask>
<path d="M1050.08 1155.9H975V1157.9H1050.08V1155.9Z" fill="#333333" mask="url(#path-443-inside-222_240_383)"/>
<mask id="path-445-inside-223_240_383" fill="white">
<path d="M975 385.9H1050.08V463H975V385.9Z"/>
</mask>
<path d="M1050.08 462H975V464H1050.08V462Z" fill="#333333" mask="url(#path-445-inside-223_240_383)"/>
<mask id="path-447-inside-224_240_383" fill="white">
<path d="M975 1156.9H1050.08V1234H975V1156.9Z"/>
</mask>
<path d="M1050.08 1233H975V1235H1050.08V1233Z" fill="#333333" mask="url(#path-447-inside-224_240_383)"/>
<mask id="path-449-inside-225_240_383" fill="white">
<path d="M1050.08 463H1125.15V540.1H1050.08V463Z"/>
</mask>
<path d="M1050.08 540.1H1049.08V541.1H1050.08V540.1ZM1125.15 539.1H1050.08V541.1H1125.15V539.1ZM1051.08 540.1V463H1049.08V540.1H1051.08Z" fill="#333333" mask="url(#path-449-inside-225_240_383)"/>
<mask id="path-451-inside-226_240_383" fill="white">
<path d="M1050.08 540.1H1125.15V617.2H1050.08V540.1Z"/>
</mask>
<path d="M1050.08 617.2H1049.08V618.2H1050.08V617.2ZM1125.15 616.2H1050.08V618.2H1125.15V616.2ZM1051.08 617.2V540.1H1049.08V617.2H1051.08Z" fill="#333333" mask="url(#path-451-inside-226_240_383)"/>
<mask id="path-453-inside-227_240_383" fill="white">
<path d="M1050.08 617.2H1125.15V694.3H1050.08V617.2Z"/>
</mask>
<path d="M1050.08 694.3H1049.08V695.3H1050.08V694.3ZM1125.15 693.3H1050.08V695.3H1125.15V693.3ZM1051.08 694.3V617.2H1049.08V694.3H1051.08Z" fill="#333333" mask="url(#path-453-inside-227_240_383)"/>
<mask id="path-455-inside-228_240_383" fill="white">
<path d="M1050.08 694.3H1125.15V771.4H1050.08V694.3Z"/>
</mask>
<path d="M1050.08 771.4H1049.08V772.4H1050.08V771.4ZM1125.15 770.4H1050.08V772.4H1125.15V770.4ZM1051.08 771.4V694.3H1049.08V771.4H1051.08Z" fill="#333333" mask="url(#path-455-inside-228_240_383)"/>
<mask id="path-457-inside-229_240_383" fill="white">
<path d="M1050.08 0.399902H1125.15V77.4999H1050.08V0.399902Z"/>
</mask>
<path d="M1050.08 77.4999H1049.08V78.4999H1050.08V77.4999ZM1125.15 76.4999H1050.08V78.4999H1125.15V76.4999ZM1051.08 77.4999V0.399902H1049.08V77.4999H1051.08Z" fill="#333333" mask="url(#path-457-inside-229_240_383)"/>
<mask id="path-459-inside-230_240_383" fill="white">
<path d="M1050.08 771.4H1125.15V848.5H1050.08V771.4Z"/>
</mask>
<path d="M1050.08 848.5H1049.08V849.5H1050.08V848.5ZM1125.15 847.5H1050.08V849.5H1125.15V847.5ZM1051.08 848.5V771.4H1049.08V848.5H1051.08Z" fill="#333333" mask="url(#path-459-inside-230_240_383)"/>
<mask id="path-461-inside-231_240_383" fill="white">
<path d="M1050.08 77.5H1125.15V154.6H1050.08V77.5Z"/>
</mask>
<path d="M1050.08 154.6H1049.08V155.6H1050.08V154.6ZM1125.15 153.6H1050.08V155.6H1125.15V153.6ZM1051.08 154.6V77.5H1049.08V154.6H1051.08Z" fill="#333333" mask="url(#path-461-inside-231_240_383)"/>
<mask id="path-463-inside-232_240_383" fill="white">
<path d="M1050.08 848.5H1125.15V925.6H1050.08V848.5Z"/>
</mask>
<path d="M1050.08 925.6H1049.08V926.6H1050.08V925.6ZM1125.15 924.6H1050.08V926.6H1125.15V924.6ZM1051.08 925.6V848.5H1049.08V925.6H1051.08Z" fill="#333333" mask="url(#path-463-inside-232_240_383)"/>
<mask id="path-465-inside-233_240_383" fill="white">
<path d="M1050.08 154.6H1125.15V231.7H1050.08V154.6Z"/>
</mask>
<path d="M1050.08 231.7H1049.08V232.7H1050.08V231.7ZM1125.15 230.7H1050.08V232.7H1125.15V230.7ZM1051.08 231.7V154.6H1049.08V231.7H1051.08Z" fill="#333333" mask="url(#path-465-inside-233_240_383)"/>
<mask id="path-467-inside-234_240_383" fill="white">
<path d="M1050.08 925.6H1125.15V1002.7H1050.08V925.6Z"/>
</mask>
<path d="M1050.08 1002.7H1049.08V1003.7H1050.08V1002.7ZM1125.15 1001.7H1050.08V1003.7H1125.15V1001.7ZM1051.08 1002.7V925.6H1049.08V1002.7H1051.08Z" fill="#333333" mask="url(#path-467-inside-234_240_383)"/>
<mask id="path-469-inside-235_240_383" fill="white">
<path d="M1050.08 231.7H1125.15V308.8H1050.08V231.7Z"/>
</mask>
<path d="M1050.08 308.8H1049.08V309.8H1050.08V308.8ZM1125.15 307.8H1050.08V309.8H1125.15V307.8ZM1051.08 308.8V231.7H1049.08V308.8H1051.08Z" fill="#333333" mask="url(#path-469-inside-235_240_383)"/>
<mask id="path-471-inside-236_240_383" fill="white">
<path d="M1050.08 1002.7H1125.15V1079.8H1050.08V1002.7Z"/>
</mask>
<path d="M1050.08 1079.8H1049.08V1080.8H1050.08V1079.8ZM1125.15 1078.8H1050.08V1080.8H1125.15V1078.8ZM1051.08 1079.8V1002.7H1049.08V1079.8H1051.08Z" fill="#333333" mask="url(#path-471-inside-236_240_383)"/>
<mask id="path-473-inside-237_240_383" fill="white">
<path d="M1050.08 308.8H1125.15V385.9H1050.08V308.8Z"/>
</mask>
<path d="M1050.08 385.9H1049.08V386.9H1050.08V385.9ZM1125.15 384.9H1050.08V386.9H1125.15V384.9ZM1051.08 385.9V308.8H1049.08V385.9H1051.08Z" fill="#333333" mask="url(#path-473-inside-237_240_383)"/>
<mask id="path-475-inside-238_240_383" fill="white">
<path d="M1050.08 1079.8H1125.15V1156.9H1050.08V1079.8Z"/>
</mask>
<path d="M1050.08 1156.9H1049.08V1157.9H1050.08V1156.9ZM1125.15 1155.9H1050.08V1157.9H1125.15V1155.9ZM1051.08 1156.9V1079.8H1049.08V1156.9H1051.08Z" fill="#333333" mask="url(#path-475-inside-238_240_383)"/>
<mask id="path-477-inside-239_240_383" fill="white">
<path d="M1050.08 385.9H1125.15V463H1050.08V385.9Z"/>
</mask>
<path d="M1050.08 463H1049.08V464H1050.08V463ZM1125.15 462H1050.08V464H1125.15V462ZM1051.08 463V385.9H1049.08V463H1051.08Z" fill="#333333" mask="url(#path-477-inside-239_240_383)"/>
<mask id="path-479-inside-240_240_383" fill="white">
<path d="M1050.08 1156.9H1125.15V1234H1050.08V1156.9Z"/>
</mask>
<path d="M1050.08 1234H1049.08V1235H1050.08V1234ZM1125.15 1233H1050.08V1235H1125.15V1233ZM1051.08 1234V1156.9H1049.08V1234H1051.08Z" fill="#333333" mask="url(#path-479-inside-240_240_383)"/>
<mask id="path-481-inside-241_240_383" fill="white">
<path d="M1125.15 463H1200.23V540.1H1125.15V463Z"/>
</mask>
<path d="M1125.15 540.1H1124.15V541.1H1125.15V540.1ZM1200.23 539.1H1125.15V541.1H1200.23V539.1ZM1126.15 540.1V463H1124.15V540.1H1126.15Z" fill="#333333" mask="url(#path-481-inside-241_240_383)"/>
<mask id="path-483-inside-242_240_383" fill="white">
<path d="M1125.15 540.1H1200.23V617.2H1125.15V540.1Z"/>
</mask>
<path d="M1125.15 617.2H1124.15V618.2H1125.15V617.2ZM1200.23 616.2H1125.15V618.2H1200.23V616.2ZM1126.15 617.2V540.1H1124.15V617.2H1126.15Z" fill="#333333" mask="url(#path-483-inside-242_240_383)"/>
<mask id="path-485-inside-243_240_383" fill="white">
<path d="M1125.15 617.2H1200.23V694.3H1125.15V617.2Z"/>
</mask>
<path d="M1125.15 694.3H1124.15V695.3H1125.15V694.3ZM1200.23 693.3H1125.15V695.3H1200.23V693.3ZM1126.15 694.3V617.2H1124.15V694.3H1126.15Z" fill="#333333" mask="url(#path-485-inside-243_240_383)"/>
<mask id="path-487-inside-244_240_383" fill="white">
<path d="M1125.15 694.3H1200.23V771.4H1125.15V694.3Z"/>
</mask>
<path d="M1125.15 771.4H1124.15V772.4H1125.15V771.4ZM1200.23 770.4H1125.15V772.4H1200.23V770.4ZM1126.15 771.4V694.3H1124.15V771.4H1126.15Z" fill="#333333" mask="url(#path-487-inside-244_240_383)"/>
<mask id="path-489-inside-245_240_383" fill="white">
<path d="M1125.15 0.399902H1200.23V77.4999H1125.15V0.399902Z"/>
</mask>
<path d="M1125.15 77.4999H1124.15V78.4999H1125.15V77.4999ZM1200.23 76.4999H1125.15V78.4999H1200.23V76.4999ZM1126.15 77.4999V0.399902H1124.15V77.4999H1126.15Z" fill="#333333" mask="url(#path-489-inside-245_240_383)"/>
<mask id="path-491-inside-246_240_383" fill="white">
<path d="M1125.15 771.4H1200.23V848.5H1125.15V771.4Z"/>
</mask>
<path d="M1125.15 848.5H1124.15V849.5H1125.15V848.5ZM1200.23 847.5H1125.15V849.5H1200.23V847.5ZM1126.15 848.5V771.4H1124.15V848.5H1126.15Z" fill="#333333" mask="url(#path-491-inside-246_240_383)"/>
<mask id="path-493-inside-247_240_383" fill="white">
<path d="M1125.15 77.5H1200.23V154.6H1125.15V77.5Z"/>
</mask>
<path d="M1125.15 154.6H1124.15V155.6H1125.15V154.6ZM1200.23 153.6H1125.15V155.6H1200.23V153.6ZM1126.15 154.6V77.5H1124.15V154.6H1126.15Z" fill="#333333" mask="url(#path-493-inside-247_240_383)"/>
<mask id="path-495-inside-248_240_383" fill="white">
<path d="M1125.15 848.5H1200.23V925.6H1125.15V848.5Z"/>
</mask>
<path d="M1125.15 925.6H1124.15V926.6H1125.15V925.6ZM1200.23 924.6H1125.15V926.6H1200.23V924.6ZM1126.15 925.6V848.5H1124.15V925.6H1126.15Z" fill="#333333" mask="url(#path-495-inside-248_240_383)"/>
<mask id="path-497-inside-249_240_383" fill="white">
<path d="M1125.15 154.6H1200.23V231.7H1125.15V154.6Z"/>
</mask>
<path d="M1125.15 231.7H1124.15V232.7H1125.15V231.7ZM1200.23 230.7H1125.15V232.7H1200.23V230.7ZM1126.15 231.7V154.6H1124.15V231.7H1126.15Z" fill="#333333" mask="url(#path-497-inside-249_240_383)"/>
<mask id="path-499-inside-250_240_383" fill="white">
<path d="M1125.15 925.6H1200.23V1002.7H1125.15V925.6Z"/>
</mask>
<path d="M1125.15 1002.7H1124.15V1003.7H1125.15V1002.7ZM1200.23 1001.7H1125.15V1003.7H1200.23V1001.7ZM1126.15 1002.7V925.6H1124.15V1002.7H1126.15Z" fill="#333333" mask="url(#path-499-inside-250_240_383)"/>
<mask id="path-501-inside-251_240_383" fill="white">
<path d="M1125.15 231.7H1200.23V308.8H1125.15V231.7Z"/>
</mask>
<path d="M1125.15 308.8H1124.15V309.8H1125.15V308.8ZM1200.23 307.8H1125.15V309.8H1200.23V307.8ZM1126.15 308.8V231.7H1124.15V308.8H1126.15Z" fill="#333333" mask="url(#path-501-inside-251_240_383)"/>
<mask id="path-503-inside-252_240_383" fill="white">
<path d="M1125.15 1002.7H1200.23V1079.8H1125.15V1002.7Z"/>
</mask>
<path d="M1125.15 1079.8H1124.15V1080.8H1125.15V1079.8ZM1200.23 1078.8H1125.15V1080.8H1200.23V1078.8ZM1126.15 1079.8V1002.7H1124.15V1079.8H1126.15Z" fill="#333333" mask="url(#path-503-inside-252_240_383)"/>
<mask id="path-505-inside-253_240_383" fill="white">
<path d="M1125.15 308.8H1200.23V385.9H1125.15V308.8Z"/>
</mask>
<path d="M1125.15 385.9H1124.15V386.9H1125.15V385.9ZM1200.23 384.9H1125.15V386.9H1200.23V384.9ZM1126.15 385.9V308.8H1124.15V385.9H1126.15Z" fill="#333333" mask="url(#path-505-inside-253_240_383)"/>
<mask id="path-507-inside-254_240_383" fill="white">
<path d="M1125.15 1079.8H1200.23V1156.9H1125.15V1079.8Z"/>
</mask>
<path d="M1125.15 1156.9H1124.15V1157.9H1125.15V1156.9ZM1200.23 1155.9H1125.15V1157.9H1200.23V1155.9ZM1126.15 1156.9V1079.8H1124.15V1156.9H1126.15Z" fill="#333333" mask="url(#path-507-inside-254_240_383)"/>
<mask id="path-509-inside-255_240_383" fill="white">
<path d="M1125.15 385.9H1200.23V463H1125.15V385.9Z"/>
</mask>
<path d="M1125.15 463H1124.15V464H1125.15V463ZM1200.23 462H1125.15V464H1200.23V462ZM1126.15 463V385.9H1124.15V463H1126.15Z" fill="#333333" mask="url(#path-509-inside-255_240_383)"/>
<mask id="path-511-inside-256_240_383" fill="white">
<path d="M1125.15 1156.9H1200.23V1234H1125.15V1156.9Z"/>
</mask>
<path d="M1125.15 1234H1124.15V1235H1125.15V1234ZM1200.23 1233H1125.15V1235H1200.23V1233ZM1126.15 1234V1156.9H1124.15V1234H1126.15Z" fill="#333333" mask="url(#path-511-inside-256_240_383)"/>
<mask id="path-513-inside-257_240_383" fill="white">
<path d="M1200.23 463H1275.31V540.1H1200.23V463Z"/>
</mask>
<path d="M1200.23 540.1H1199.23V541.1H1200.23V540.1ZM1275.31 539.1H1200.23V541.1H1275.31V539.1ZM1201.23 540.1V463H1199.23V540.1H1201.23Z" fill="#333333" mask="url(#path-513-inside-257_240_383)"/>
<mask id="path-515-inside-258_240_383" fill="white">
<path d="M1200.23 540.1H1275.31V617.2H1200.23V540.1Z"/>
</mask>
<path d="M1200.23 617.2H1199.23V618.2H1200.23V617.2ZM1275.31 616.2H1200.23V618.2H1275.31V616.2ZM1201.23 617.2V540.1H1199.23V617.2H1201.23Z" fill="#333333" mask="url(#path-515-inside-258_240_383)"/>
<mask id="path-517-inside-259_240_383" fill="white">
<path d="M1200.23 617.2H1275.31V694.3H1200.23V617.2Z"/>
</mask>
<path d="M1200.23 694.3H1199.23V695.3H1200.23V694.3ZM1275.31 693.3H1200.23V695.3H1275.31V693.3ZM1201.23 694.3V617.2H1199.23V694.3H1201.23Z" fill="#333333" mask="url(#path-517-inside-259_240_383)"/>
<mask id="path-519-inside-260_240_383" fill="white">
<path d="M1200.23 694.3H1275.31V771.4H1200.23V694.3Z"/>
</mask>
<path d="M1200.23 771.4H1199.23V772.4H1200.23V771.4ZM1275.31 770.4H1200.23V772.4H1275.31V770.4ZM1201.23 771.4V694.3H1199.23V771.4H1201.23Z" fill="#333333" mask="url(#path-519-inside-260_240_383)"/>
<mask id="path-521-inside-261_240_383" fill="white">
<path d="M1200.23 0.399902H1275.31V77.4999H1200.23V0.399902Z"/>
</mask>
<path d="M1200.23 77.4999H1199.23V78.4999H1200.23V77.4999ZM1275.31 76.4999H1200.23V78.4999H1275.31V76.4999ZM1201.23 77.4999V0.399902H1199.23V77.4999H1201.23Z" fill="#333333" mask="url(#path-521-inside-261_240_383)"/>
<mask id="path-523-inside-262_240_383" fill="white">
<path d="M1200.23 771.4H1275.31V848.5H1200.23V771.4Z"/>
</mask>
<path d="M1200.23 848.5H1199.23V849.5H1200.23V848.5ZM1275.31 847.5H1200.23V849.5H1275.31V847.5ZM1201.23 848.5V771.4H1199.23V848.5H1201.23Z" fill="#333333" mask="url(#path-523-inside-262_240_383)"/>
<mask id="path-525-inside-263_240_383" fill="white">
<path d="M1200.23 77.5H1275.31V154.6H1200.23V77.5Z"/>
</mask>
<path d="M1200.23 154.6H1199.23V155.6H1200.23V154.6ZM1275.31 153.6H1200.23V155.6H1275.31V153.6ZM1201.23 154.6V77.5H1199.23V154.6H1201.23Z" fill="#333333" mask="url(#path-525-inside-263_240_383)"/>
<mask id="path-527-inside-264_240_383" fill="white">
<path d="M1200.23 848.5H1275.31V925.6H1200.23V848.5Z"/>
</mask>
<path d="M1200.23 925.6H1199.23V926.6H1200.23V925.6ZM1275.31 924.6H1200.23V926.6H1275.31V924.6ZM1201.23 925.6V848.5H1199.23V925.6H1201.23Z" fill="#333333" mask="url(#path-527-inside-264_240_383)"/>
<mask id="path-529-inside-265_240_383" fill="white">
<path d="M1200.23 154.6H1275.31V231.7H1200.23V154.6Z"/>
</mask>
<path d="M1200.23 231.7H1199.23V232.7H1200.23V231.7ZM1275.31 230.7H1200.23V232.7H1275.31V230.7ZM1201.23 231.7V154.6H1199.23V231.7H1201.23Z" fill="#333333" mask="url(#path-529-inside-265_240_383)"/>
<mask id="path-531-inside-266_240_383" fill="white">
<path d="M1200.23 925.6H1275.31V1002.7H1200.23V925.6Z"/>
</mask>
<path d="M1200.23 1002.7H1199.23V1003.7H1200.23V1002.7ZM1275.31 1001.7H1200.23V1003.7H1275.31V1001.7ZM1201.23 1002.7V925.6H1199.23V1002.7H1201.23Z" fill="#333333" mask="url(#path-531-inside-266_240_383)"/>
<mask id="path-533-inside-267_240_383" fill="white">
<path d="M1200.23 231.7H1275.31V308.8H1200.23V231.7Z"/>
</mask>
<path d="M1200.23 308.8H1199.23V309.8H1200.23V308.8ZM1275.31 307.8H1200.23V309.8H1275.31V307.8ZM1201.23 308.8V231.7H1199.23V308.8H1201.23Z" fill="#333333" mask="url(#path-533-inside-267_240_383)"/>
<mask id="path-535-inside-268_240_383" fill="white">
<path d="M1200.23 1002.7H1275.31V1079.8H1200.23V1002.7Z"/>
</mask>
<path d="M1200.23 1079.8H1199.23V1080.8H1200.23V1079.8ZM1275.31 1078.8H1200.23V1080.8H1275.31V1078.8ZM1201.23 1079.8V1002.7H1199.23V1079.8H1201.23Z" fill="#333333" mask="url(#path-535-inside-268_240_383)"/>
<mask id="path-537-inside-269_240_383" fill="white">
<path d="M1200.23 308.8H1275.31V385.9H1200.23V308.8Z"/>
</mask>
<path d="M1200.23 385.9H1199.23V386.9H1200.23V385.9ZM1275.31 384.9H1200.23V386.9H1275.31V384.9ZM1201.23 385.9V308.8H1199.23V385.9H1201.23Z" fill="#333333" mask="url(#path-537-inside-269_240_383)"/>
<mask id="path-539-inside-270_240_383" fill="white">
<path d="M1200.23 1079.8H1275.31V1156.9H1200.23V1079.8Z"/>
</mask>
<path d="M1200.23 1156.9H1199.23V1157.9H1200.23V1156.9ZM1275.31 1155.9H1200.23V1157.9H1275.31V1155.9ZM1201.23 1156.9V1079.8H1199.23V1156.9H1201.23Z" fill="#333333" mask="url(#path-539-inside-270_240_383)"/>
<mask id="path-541-inside-271_240_383" fill="white">
<path d="M1200.23 385.9H1275.31V463H1200.23V385.9Z"/>
</mask>
<path d="M1200.23 463H1199.23V464H1200.23V463ZM1275.31 462H1200.23V464H1275.31V462ZM1201.23 463V385.9H1199.23V463H1201.23Z" fill="#333333" mask="url(#path-541-inside-271_240_383)"/>
<mask id="path-543-inside-272_240_383" fill="white">
<path d="M1200.23 1156.9H1275.31V1234H1200.23V1156.9Z"/>
</mask>
<path d="M1200.23 1234H1199.23V1235H1200.23V1234ZM1275.31 1233H1200.23V1235H1275.31V1233ZM1201.23 1234V1156.9H1199.23V1234H1201.23Z" fill="#333333" mask="url(#path-543-inside-272_240_383)"/>
<mask id="path-545-inside-273_240_383" fill="white">
<path d="M1275.31 463H1350.38V540.1H1275.31V463Z"/>
</mask>
<path d="M1275.31 540.1H1274.31V541.1H1275.31V540.1ZM1350.38 539.1H1275.31V541.1H1350.38V539.1ZM1276.31 540.1V463H1274.31V540.1H1276.31Z" fill="#333333" mask="url(#path-545-inside-273_240_383)"/>
<mask id="path-547-inside-274_240_383" fill="white">
<path d="M1275.31 540.1H1350.38V617.2H1275.31V540.1Z"/>
</mask>
<path d="M1275.31 617.2H1274.31V618.2H1275.31V617.2ZM1350.38 616.2H1275.31V618.2H1350.38V616.2ZM1276.31 617.2V540.1H1274.31V617.2H1276.31Z" fill="#333333" mask="url(#path-547-inside-274_240_383)"/>
<mask id="path-549-inside-275_240_383" fill="white">
<path d="M1275.31 617.2H1350.38V694.3H1275.31V617.2Z"/>
</mask>
<path d="M1275.31 694.3H1274.31V695.3H1275.31V694.3ZM1350.38 693.3H1275.31V695.3H1350.38V693.3ZM1276.31 694.3V617.2H1274.31V694.3H1276.31Z" fill="#333333" mask="url(#path-549-inside-275_240_383)"/>
<mask id="path-551-inside-276_240_383" fill="white">
<path d="M1275.31 694.3H1350.38V771.4H1275.31V694.3Z"/>
</mask>
<path d="M1275.31 771.4H1274.31V772.4H1275.31V771.4ZM1350.38 770.4H1275.31V772.4H1350.38V770.4ZM1276.31 771.4V694.3H1274.31V771.4H1276.31Z" fill="#333333" mask="url(#path-551-inside-276_240_383)"/>
<mask id="path-553-inside-277_240_383" fill="white">
<path d="M1275.31 0.399902H1350.38V77.4999H1275.31V0.399902Z"/>
</mask>
<path d="M1275.31 77.4999H1274.31V78.4999H1275.31V77.4999ZM1350.38 76.4999H1275.31V78.4999H1350.38V76.4999ZM1276.31 77.4999V0.399902H1274.31V77.4999H1276.31Z" fill="#333333" mask="url(#path-553-inside-277_240_383)"/>
<mask id="path-555-inside-278_240_383" fill="white">
<path d="M1275.31 771.4H1350.38V848.5H1275.31V771.4Z"/>
</mask>
<path d="M1275.31 848.5H1274.31V849.5H1275.31V848.5ZM1350.38 847.5H1275.31V849.5H1350.38V847.5ZM1276.31 848.5V771.4H1274.31V848.5H1276.31Z" fill="#333333" mask="url(#path-555-inside-278_240_383)"/>
<mask id="path-557-inside-279_240_383" fill="white">
<path d="M1275.31 77.5H1350.38V154.6H1275.31V77.5Z"/>
</mask>
<path d="M1275.31 154.6H1274.31V155.6H1275.31V154.6ZM1350.38 153.6H1275.31V155.6H1350.38V153.6ZM1276.31 154.6V77.5H1274.31V154.6H1276.31Z" fill="#333333" mask="url(#path-557-inside-279_240_383)"/>
<mask id="path-559-inside-280_240_383" fill="white">
<path d="M1275.31 848.5H1350.38V925.6H1275.31V848.5Z"/>
</mask>
<path d="M1275.31 925.6H1274.31V926.6H1275.31V925.6ZM1350.38 924.6H1275.31V926.6H1350.38V924.6ZM1276.31 925.6V848.5H1274.31V925.6H1276.31Z" fill="#333333" mask="url(#path-559-inside-280_240_383)"/>
<mask id="path-561-inside-281_240_383" fill="white">
<path d="M1275.31 154.6H1350.38V231.7H1275.31V154.6Z"/>
</mask>
<path d="M1275.31 231.7H1274.31V232.7H1275.31V231.7ZM1350.38 230.7H1275.31V232.7H1350.38V230.7ZM1276.31 231.7V154.6H1274.31V231.7H1276.31Z" fill="#333333" mask="url(#path-561-inside-281_240_383)"/>
<mask id="path-563-inside-282_240_383" fill="white">
<path d="M1275.31 925.6H1350.38V1002.7H1275.31V925.6Z"/>
</mask>
<path d="M1275.31 1002.7H1274.31V1003.7H1275.31V1002.7ZM1350.38 1001.7H1275.31V1003.7H1350.38V1001.7ZM1276.31 1002.7V925.6H1274.31V1002.7H1276.31Z" fill="#333333" mask="url(#path-563-inside-282_240_383)"/>
<mask id="path-565-inside-283_240_383" fill="white">
<path d="M1275.31 231.7H1350.38V308.8H1275.31V231.7Z"/>
</mask>
<path d="M1275.31 308.8H1274.31V309.8H1275.31V308.8ZM1350.38 307.8H1275.31V309.8H1350.38V307.8ZM1276.31 308.8V231.7H1274.31V308.8H1276.31Z" fill="#333333" mask="url(#path-565-inside-283_240_383)"/>
<mask id="path-567-inside-284_240_383" fill="white">
<path d="M1275.31 1002.7H1350.38V1079.8H1275.31V1002.7Z"/>
</mask>
<path d="M1275.31 1079.8H1274.31V1080.8H1275.31V1079.8ZM1350.38 1078.8H1275.31V1080.8H1350.38V1078.8ZM1276.31 1079.8V1002.7H1274.31V1079.8H1276.31Z" fill="#333333" mask="url(#path-567-inside-284_240_383)"/>
<mask id="path-569-inside-285_240_383" fill="white">
<path d="M1275.31 308.8H1350.38V385.9H1275.31V308.8Z"/>
</mask>
<path d="M1275.31 385.9H1274.31V386.9H1275.31V385.9ZM1350.38 384.9H1275.31V386.9H1350.38V384.9ZM1276.31 385.9V308.8H1274.31V385.9H1276.31Z" fill="#333333" mask="url(#path-569-inside-285_240_383)"/>
<mask id="path-571-inside-286_240_383" fill="white">
<path d="M1275.31 1079.8H1350.38V1156.9H1275.31V1079.8Z"/>
</mask>
<path d="M1275.31 1156.9H1274.31V1157.9H1275.31V1156.9ZM1350.38 1155.9H1275.31V1157.9H1350.38V1155.9ZM1276.31 1156.9V1079.8H1274.31V1156.9H1276.31Z" fill="#333333" mask="url(#path-571-inside-286_240_383)"/>
<mask id="path-573-inside-287_240_383" fill="white">
<path d="M1275.31 385.9H1350.38V463H1275.31V385.9Z"/>
</mask>
<path d="M1275.31 463H1274.31V464H1275.31V463ZM1350.38 462H1275.31V464H1350.38V462ZM1276.31 463V385.9H1274.31V463H1276.31Z" fill="#333333" mask="url(#path-573-inside-287_240_383)"/>
<mask id="path-575-inside-288_240_383" fill="white">
<path d="M1275.31 1156.9H1350.38V1234H1275.31V1156.9Z"/>
</mask>
<path d="M1275.31 1234H1274.31V1235H1275.31V1234ZM1350.38 1233H1275.31V1235H1350.38V1233ZM1276.31 1234V1156.9H1274.31V1234H1276.31Z" fill="#333333" mask="url(#path-575-inside-288_240_383)"/>
<mask id="path-577-inside-289_240_383" fill="white">
<path d="M1350.38 463H1425.46V540.1H1350.38V463Z"/>
</mask>
<path d="M1350.38 540.1H1349.38V541.1H1350.38V540.1ZM1425.46 539.1H1350.38V541.1H1425.46V539.1ZM1351.38 540.1V463H1349.38V540.1H1351.38Z" fill="#333333" mask="url(#path-577-inside-289_240_383)"/>
<mask id="path-579-inside-290_240_383" fill="white">
<path d="M1350.38 540.1H1425.46V617.2H1350.38V540.1Z"/>
</mask>
<path d="M1350.38 617.2H1349.38V618.2H1350.38V617.2ZM1425.46 616.2H1350.38V618.2H1425.46V616.2ZM1351.38 617.2V540.1H1349.38V617.2H1351.38Z" fill="#333333" mask="url(#path-579-inside-290_240_383)"/>
<mask id="path-581-inside-291_240_383" fill="white">
<path d="M1350.38 617.2H1425.46V694.3H1350.38V617.2Z"/>
</mask>
<path d="M1350.38 694.3H1349.38V695.3H1350.38V694.3ZM1425.46 693.3H1350.38V695.3H1425.46V693.3ZM1351.38 694.3V617.2H1349.38V694.3H1351.38Z" fill="#333333" mask="url(#path-581-inside-291_240_383)"/>
<mask id="path-583-inside-292_240_383" fill="white">
<path d="M1350.38 694.3H1425.46V771.4H1350.38V694.3Z"/>
</mask>
<path d="M1350.38 771.4H1349.38V772.4H1350.38V771.4ZM1425.46 770.4H1350.38V772.4H1425.46V770.4ZM1351.38 771.4V694.3H1349.38V771.4H1351.38Z" fill="#333333" mask="url(#path-583-inside-292_240_383)"/>
<mask id="path-585-inside-293_240_383" fill="white">
<path d="M1350.38 0.399902H1425.46V77.4999H1350.38V0.399902Z"/>
</mask>
<path d="M1350.38 77.4999H1349.38V78.4999H1350.38V77.4999ZM1425.46 76.4999H1350.38V78.4999H1425.46V76.4999ZM1351.38 77.4999V0.399902H1349.38V77.4999H1351.38Z" fill="#333333" mask="url(#path-585-inside-293_240_383)"/>
<mask id="path-587-inside-294_240_383" fill="white">
<path d="M1350.38 771.4H1425.46V848.5H1350.38V771.4Z"/>
</mask>
<path d="M1350.38 848.5H1349.38V849.5H1350.38V848.5ZM1425.46 847.5H1350.38V849.5H1425.46V847.5ZM1351.38 848.5V771.4H1349.38V848.5H1351.38Z" fill="#333333" mask="url(#path-587-inside-294_240_383)"/>
<mask id="path-589-inside-295_240_383" fill="white">
<path d="M1350.38 77.5H1425.46V154.6H1350.38V77.5Z"/>
</mask>
<path d="M1350.38 154.6H1349.38V155.6H1350.38V154.6ZM1425.46 153.6H1350.38V155.6H1425.46V153.6ZM1351.38 154.6V77.5H1349.38V154.6H1351.38Z" fill="#333333" mask="url(#path-589-inside-295_240_383)"/>
<mask id="path-591-inside-296_240_383" fill="white">
<path d="M1350.38 848.5H1425.46V925.6H1350.38V848.5Z"/>
</mask>
<path d="M1350.38 925.6H1349.38V926.6H1350.38V925.6ZM1425.46 924.6H1350.38V926.6H1425.46V924.6ZM1351.38 925.6V848.5H1349.38V925.6H1351.38Z" fill="#333333" mask="url(#path-591-inside-296_240_383)"/>
<mask id="path-593-inside-297_240_383" fill="white">
<path d="M1350.38 154.6H1425.46V231.7H1350.38V154.6Z"/>
</mask>
<path d="M1350.38 231.7H1349.38V232.7H1350.38V231.7ZM1425.46 230.7H1350.38V232.7H1425.46V230.7ZM1351.38 231.7V154.6H1349.38V231.7H1351.38Z" fill="#333333" mask="url(#path-593-inside-297_240_383)"/>
<mask id="path-595-inside-298_240_383" fill="white">
<path d="M1350.38 925.6H1425.46V1002.7H1350.38V925.6Z"/>
</mask>
<path d="M1350.38 1002.7H1349.38V1003.7H1350.38V1002.7ZM1425.46 1001.7H1350.38V1003.7H1425.46V1001.7ZM1351.38 1002.7V925.6H1349.38V1002.7H1351.38Z" fill="#333333" mask="url(#path-595-inside-298_240_383)"/>
<mask id="path-597-inside-299_240_383" fill="white">
<path d="M1350.38 231.7H1425.46V308.8H1350.38V231.7Z"/>
</mask>
<path d="M1350.38 308.8H1349.38V309.8H1350.38V308.8ZM1425.46 307.8H1350.38V309.8H1425.46V307.8ZM1351.38 308.8V231.7H1349.38V308.8H1351.38Z" fill="#333333" mask="url(#path-597-inside-299_240_383)"/>
<mask id="path-599-inside-300_240_383" fill="white">
<path d="M1350.38 1002.7H1425.46V1079.8H1350.38V1002.7Z"/>
</mask>
<path d="M1350.38 1079.8H1349.38V1080.8H1350.38V1079.8ZM1425.46 1078.8H1350.38V1080.8H1425.46V1078.8ZM1351.38 1079.8V1002.7H1349.38V1079.8H1351.38Z" fill="#333333" mask="url(#path-599-inside-300_240_383)"/>
<mask id="path-601-inside-301_240_383" fill="white">
<path d="M1350.38 308.8H1425.46V385.9H1350.38V308.8Z"/>
</mask>
<path d="M1350.38 385.9H1349.38V386.9H1350.38V385.9ZM1425.46 384.9H1350.38V386.9H1425.46V384.9ZM1351.38 385.9V308.8H1349.38V385.9H1351.38Z" fill="#333333" mask="url(#path-601-inside-301_240_383)"/>
<mask id="path-603-inside-302_240_383" fill="white">
<path d="M1350.38 1079.8H1425.46V1156.9H1350.38V1079.8Z"/>
</mask>
<path d="M1350.38 1156.9H1349.38V1157.9H1350.38V1156.9ZM1425.46 1155.9H1350.38V1157.9H1425.46V1155.9ZM1351.38 1156.9V1079.8H1349.38V1156.9H1351.38Z" fill="#333333" mask="url(#path-603-inside-302_240_383)"/>
<mask id="path-605-inside-303_240_383" fill="white">
<path d="M1350.38 385.9H1425.46V463H1350.38V385.9Z"/>
</mask>
<path d="M1350.38 463H1349.38V464H1350.38V463ZM1425.46 462H1350.38V464H1425.46V462ZM1351.38 463V385.9H1349.38V463H1351.38Z" fill="#333333" mask="url(#path-605-inside-303_240_383)"/>
<mask id="path-607-inside-304_240_383" fill="white">
<path d="M1350.38 1156.9H1425.46V1234H1350.38V1156.9Z"/>
</mask>
<path d="M1350.38 1234H1349.38V1235H1350.38V1234ZM1425.46 1233H1350.38V1235H1425.46V1233ZM1351.38 1234V1156.9H1349.38V1234H1351.38Z" fill="#333333" mask="url(#path-607-inside-304_240_383)"/>
</svg>
