<svg width="1426" height="771" viewBox="0 0 1426 771" fill="none" xmlns="http://www.w3.org/2000/svg">
<path fill-rule="evenodd" clip-rule="evenodd" d="M75.0769 0H1H0V1V76.1V77.1H1H75.0769V76.1H1V1H75.0769V0ZM0 77.1001V153.2V154.2H1H75.0769V153.2H1V77.1001H0ZM0 154.2V230.3V231.3H1H75.0769V230.3H1V154.2H0ZM0 231.3V307.4V308.4H1H75.0769V307.4H1V231.3H0ZM0 308.4V384.5V385.5H1H75.0769V384.5H1V308.4H0ZM0 385.5V461.6V462.6H1H75.0769V461.6H1V385.5H0ZM0 462.6V538.7V539.7H1H75.0769V538.7H1V462.6H0ZM0 539.7V615.8V616.8H1H75.0769V615.8H1V539.7H0ZM0 616.8V692.9V693.9H1H75.0769V692.9H1V616.8H0ZM0 693.9V770V771H1H75.0769V770H1V693.9H0ZM150.154 0H76.0771H75.0771V1V76.1V77.1H76.0771H150.154V76.1H76.0771V1H150.154V0ZM75.0771 77.1001V153.2V154.2H76.0771H150.154V153.2H76.0771V77.1001H75.0771ZM75.0771 154.2V230.3V231.3H76.0771H150.154V230.3H76.0771V154.2H75.0771ZM75.0771 231.3V307.4V308.4H76.0771H150.154V307.4H76.0771V231.3H75.0771ZM75.0771 308.4V384.5V385.5H76.0771H150.154V384.5H76.0771V308.4H75.0771ZM75.0771 385.5V461.6V462.6H76.0771H150.154V461.6H76.0771V385.5H75.0771ZM75.0771 462.6V538.7V539.7H76.0771H150.154V538.7H76.0771V462.6H75.0771ZM75.0771 539.7V615.8V616.8H76.0771H150.154V615.8H76.0771V539.7H75.0771ZM75.0771 616.8V692.9V693.9H76.0771H150.154V692.9H76.0771V616.8H75.0771ZM75.0771 693.9V770V771H76.0771H150.154V770H76.0771V693.9H75.0771ZM225.231 0H151.154H150.154V1V76.1V77.1H151.154H225.231V76.1H151.154V1H225.231V0ZM150.154 77.1001V153.2V154.2H151.154H225.231V153.2H151.154V77.1001H150.154ZM150.154 154.2V230.3V231.3H151.154H225.231V230.3H151.154V154.2H150.154ZM150.154 231.3V307.4V308.4H151.154H225.231V307.4H151.154V231.3H150.154ZM150.154 308.4V384.5V385.5H151.154H225.231V384.5H151.154V308.4H150.154ZM150.154 385.5V461.6V462.6H151.154H225.231V461.6H151.154V385.5H150.154ZM150.154 462.6V538.7V539.7H151.154H225.231V538.7H151.154V462.6H150.154ZM150.154 539.7V615.8V616.8H151.154H225.231V615.8H151.154V539.7H150.154ZM150.154 616.8V692.9V693.9H151.154H225.231V692.9H151.154V616.8H150.154ZM150.154 693.9V770V771H151.154H225.231V770H151.154V693.9H150.154ZM300.307 0H226.23H225.23V1V76.1V77.1H226.23H300.307V76.1H226.23V1H300.307V0ZM225.23 77.1001V153.2V154.2H226.23H300.307V153.2H226.23V77.1001H225.23ZM225.23 154.2V230.3V231.3H226.23H300.307V230.3H226.23V154.2H225.23ZM225.23 231.3V307.4V308.4H226.23H300.307V307.4H226.23V231.3H225.23ZM225.23 308.4V384.5V385.5H226.23H300.307V384.5H226.23V308.4H225.23ZM225.23 385.5V461.6V462.6H226.23H300.307V461.6H226.23V385.5H225.23ZM225.23 462.6V538.7V539.7H226.23H300.307V538.7H226.23V462.6H225.23ZM225.23 539.7V615.8V616.8H226.23H300.307V615.8H226.23V539.7H225.23ZM225.23 616.8V692.9V693.9H226.23H300.307V692.9H226.23V616.8H225.23ZM225.23 693.9V770V771H226.23H300.307V770H226.23V693.9H225.23ZM375.385 0H301.308H300.308V1V76.1V77.1H301.308H375.385V76.1H301.308V1H375.385V0ZM300.308 77.1001V153.2V154.2H301.308H375.385V153.2H301.308V77.1001H300.308ZM300.308 154.2V230.3V231.3H301.308H375.385V230.3H301.308V154.2H300.308ZM300.308 231.3V307.4V308.4H301.308H375.385V307.4H301.308V231.3H300.308ZM300.308 308.4V384.5V385.5H301.308H375.385V384.5H301.308V308.4H300.308ZM300.308 385.5V461.6V462.6H301.308H375.385V461.6H301.308V385.5H300.308ZM300.308 462.6V538.7V539.7H301.308H375.385V538.7H301.308V462.6H300.308ZM300.308 539.7V615.8V616.8H301.308H375.385V615.8H301.308V539.7H300.308ZM300.308 616.8V692.9V693.9H301.308H375.385V692.9H301.308V616.8H300.308ZM300.308 693.9V770V771H301.308H375.385V770H301.308V693.9H300.308ZM450.462 0H376.385H375.385V1V76.1V77.1H376.385H450.462V76.1H376.385V1H450.462V0ZM375.385 77.1001V153.2V154.2H376.385H450.462V153.2H376.385V77.1001H375.385ZM375.385 154.2V230.3V231.3H376.385H450.462V230.3H376.385V154.2H375.385ZM375.385 231.3V307.4V308.4H376.385H450.462V307.4H376.385V231.3H375.385ZM375.385 308.4V384.5V385.5H376.385H450.462V384.5H376.385V308.4H375.385ZM375.385 385.5V461.6V462.6H376.385H450.462V461.6H376.385V385.5H375.385ZM375.385 462.6V538.7V539.7H376.385H450.462V538.7H376.385V462.6H375.385ZM375.385 539.7V615.8V616.8H376.385H450.462V615.8H376.385V539.7H375.385ZM375.385 616.8V692.9V693.9H376.385H450.462V692.9H376.385V616.8H375.385ZM375.385 693.9V770V771H376.385H450.462V770H376.385V693.9H375.385ZM525.539 0H451.462H450.462V1V76.1V77.1H451.462H525.539V76.1H451.462V1H525.539V0ZM450.462 77.1001V153.2V154.2H451.462H525.539V153.2H451.462V77.1001H450.462ZM450.462 154.2V230.3V231.3H451.462H525.539V230.3H451.462V154.2H450.462ZM450.462 231.3V307.4V308.4H451.462H525.539V307.4H451.462V231.3H450.462ZM450.462 308.4V384.5V385.5H451.462H525.539V384.5H451.462V308.4H450.462ZM450.462 385.5V461.6V462.6H451.462H525.539V461.6H451.462V385.5H450.462ZM450.462 462.6V538.7V539.7H451.462H525.539V538.7H451.462V462.6H450.462ZM450.462 539.7V615.8V616.8H451.462H525.539V615.8H451.462V539.7H450.462ZM450.462 616.8V692.9V693.9H451.462H525.539V692.9H451.462V616.8H450.462ZM450.462 693.9V770V771H451.462H525.539V770H451.462V693.9H450.462ZM600.615 0H526.538H525.538V1V76.1V77.1H526.538H600.615V76.1H526.538V1H600.615V0ZM525.538 77.1001V153.2V154.2H526.538H600.615V153.2H526.538V77.1001H525.538ZM525.538 154.2V230.3V231.3H526.538H600.615V230.3H526.538V154.2H525.538ZM525.538 231.3V307.4V308.4H526.538H600.615V307.4H526.538V231.3H525.538ZM525.538 308.4V384.5V385.5H526.538H600.615V384.5H526.538V308.4H525.538ZM525.538 385.5V461.6V462.6H526.538H600.615V461.6H526.538V385.5H525.538ZM525.538 462.6V538.7V539.7H526.538H600.615V538.7H526.538V462.6H525.538ZM525.538 539.7V615.8V616.8H526.538H600.615V615.8H526.538V539.7H525.538ZM525.538 616.8V692.9V693.9H526.538H600.615V692.9H526.538V616.8H525.538ZM525.538 693.9V770V771H526.538H600.615V770H526.538V693.9H525.538ZM675.692 0H601.615H600.615V1V76.1V77.1H601.615H675.692V76.1H601.615V1H675.692V0ZM600.615 77.1001V153.2V154.2H601.615H675.692V153.2H601.615V77.1001H600.615ZM600.615 154.2V230.3V231.3H601.615H675.692V230.3H601.615V154.2H600.615ZM600.615 231.3V307.4V308.4H601.615H675.692V307.4H601.615V231.3H600.615ZM600.615 308.4V384.5V385.5H601.615H675.692V384.5H601.615V308.4H600.615ZM600.615 385.5V461.6V462.6H601.615H675.692V461.6H601.615V385.5H600.615ZM600.615 462.6V538.7V539.7H601.615H675.692V538.7H601.615V462.6H600.615ZM600.615 539.7V615.8V616.8H601.615H675.692V615.8H601.615V539.7H600.615ZM600.615 616.8V692.9V693.9H601.615H675.692V692.9H601.615V616.8H600.615ZM600.615 693.9V770V771H601.615H675.692V770H601.615V693.9H600.615ZM750.769 0H676.692H675.692V1V76.1V77.1H676.692H750.769V76.1H676.692V1H750.769V0ZM675.692 77.1001V153.2V154.2H676.692H750.769V153.2H676.692V77.1001H675.692ZM675.692 154.2V230.3V231.3H676.692H750.769V230.3H676.692V154.2H675.692ZM675.692 231.3V307.4V308.4H676.692H750.769V307.4H676.692V231.3H675.692ZM675.692 308.4V384.5V385.5H676.692H750.769V384.5H676.692V308.4H675.692ZM675.692 385.5V461.6V462.6H676.692H750.769V461.6H676.692V385.5H675.692ZM675.692 462.6V538.7V539.7H676.692H750.769V538.7H676.692V462.6H675.692ZM675.692 539.7V615.8V616.8H676.692H750.769V615.8H676.692V539.7H675.692ZM675.692 616.8V692.9V693.9H676.692H750.769V692.9H676.692V616.8H675.692ZM675.692 693.9V770V771H676.692H750.769V770H676.692V693.9H675.692ZM825.846 0H751.77H750.77V1V76.1V77.1H751.77H825.846V76.1H751.77V1H825.846V0ZM750.77 77.1001V153.2V154.2H751.77H825.846V153.2H751.77V77.1001H750.77ZM750.77 154.2V230.3V231.3H751.77H825.846V230.3H751.77V154.2H750.77ZM750.77 231.3V307.4V308.4H751.77H825.846V307.4H751.77V231.3H750.77ZM750.77 308.4V384.5V385.5H751.77H825.846V384.5H751.77V308.4H750.77ZM750.77 385.5V461.6V462.6H751.77H825.846V461.6H751.77V385.5H750.77ZM750.77 462.6V538.7V539.7H751.77H825.846V538.7H751.77V462.6H750.77ZM750.77 539.7V615.8V616.8H751.77H825.846V615.8H751.77V539.7H750.77ZM750.77 616.8V692.9V693.9H751.77H825.846V692.9H751.77V616.8H750.77ZM750.77 693.9V770V771H751.77H825.846V770H751.77V693.9H750.77ZM900.923 0H826.846H825.846V1V76.1V77.1H826.846H900.923V76.1H826.846V1H900.923V0ZM825.846 77.1001V153.2V154.2H826.846H900.923V153.2H826.846V77.1001H825.846ZM825.846 154.2V230.3V231.3H826.846H900.923V230.3H826.846V154.2H825.846ZM825.846 231.3V307.4V308.4H826.846H900.923V307.4H826.846V231.3H825.846ZM825.846 308.4V384.5V385.5H826.846H900.923V384.5H826.846V308.4H825.846ZM825.846 385.5V461.6V462.6H826.846H900.923V461.6H826.846V385.5H825.846ZM825.846 462.6V538.7V539.7H826.846H900.923V538.7H826.846V462.6H825.846ZM825.846 539.7V615.8V616.8H826.846H900.923V615.8H826.846V539.7H825.846ZM825.846 616.8V692.9V693.9H826.846H900.923V692.9H826.846V616.8H825.846ZM825.846 693.9V770V771H826.846H900.923V770H826.846V693.9H825.846ZM975 1H901.923V76.1H975V1ZM901.923 0H900.923V1V76.1V77.1H901.923H975H976V76.1V1V0H975H901.923ZM900.923 77.1001V153.2V154.2H901.923H975H976V153.2V77.1001H975V153.2H901.923V77.1001H900.923ZM900.923 154.2V230.3V231.3H901.923H975H976V230.3V154.2H975V230.3H901.923V154.2H900.923ZM900.923 231.3V307.4V308.4H901.923H975H976V307.4V231.3H975V307.4H901.923V231.3H900.923ZM900.923 308.4V384.5V385.5H901.923H975H976V384.5V308.4H975V384.5H901.923V308.4H900.923ZM900.923 385.5V461.6V462.6H901.923H975H976V461.6V385.5H975V461.6H901.923V385.5H900.923ZM900.923 462.6V538.7V539.7H901.923H975H976V538.7V462.6H975V538.7H901.923V462.6H900.923ZM900.923 539.7V615.8V616.8H901.923H975H976V615.8V539.7H975V615.8H901.923V539.7H900.923ZM900.923 616.8V692.9V693.9H901.923H975H976V692.9V616.8H975V692.9H901.923V616.8H900.923ZM900.923 693.9V770V771H901.923H975H976V770V693.9H975V770H901.923V693.9H900.923ZM1050.08 1H975V0H1050.08V1ZM1050.08 76.1H975V77.1H1050.08V76.1ZM975 153.2V154.2H1050.08V153.2H975ZM975 230.3V231.3H1050.08V230.3H975ZM975 307.4V308.4H1050.08V307.4H975ZM975 384.5V385.5H1050.08V384.5H975ZM975 461.6V462.6H1050.08V461.6H975ZM975 538.7V539.7H1050.08V538.7H975ZM975 615.8V616.8H1050.08V615.8H975ZM975 692.9V693.9H1050.08V692.9H975ZM975 770V771H1050.08V770H975ZM1125.15 0H1051.08H1050.08V1V76.1V77.1H1051.08H1125.15V76.1H1051.08V1H1125.15V0ZM1050.08 77.1001V153.2V154.2H1051.08H1125.15V153.2H1051.08V77.1001H1050.08ZM1050.08 154.2V230.3V231.3H1051.08H1125.15V230.3H1051.08V154.2H1050.08ZM1050.08 231.3V307.4V308.4H1051.08H1125.15V307.4H1051.08V231.3H1050.08ZM1050.08 308.4V384.5V385.5H1051.08H1125.15V384.5H1051.08V308.4H1050.08ZM1050.08 385.5V461.6V462.6H1051.08H1125.15V461.6H1051.08V385.5H1050.08ZM1050.08 462.6V538.7V539.7H1051.08H1125.15V538.7H1051.08V462.6H1050.08ZM1050.08 539.7V615.8V616.8H1051.08H1125.15V615.8H1051.08V539.7H1050.08ZM1050.08 616.8V692.9V693.9H1051.08H1125.15V692.9H1051.08V616.8H1050.08ZM1050.08 693.9V770V771H1051.08H1125.15V770H1051.08V693.9H1050.08ZM1200.23 0H1126.15H1125.15V1V76.1V77.1H1126.15H1200.23V76.1H1126.15V1H1200.23V0ZM1125.15 77.1001V153.2V154.2H1126.15H1200.23V153.2H1126.15V77.1001H1125.15ZM1125.15 154.2V230.3V231.3H1126.15H1200.23V230.3H1126.15V154.2H1125.15ZM1125.15 231.3V307.4V308.4H1126.15H1200.23V307.4H1126.15V231.3H1125.15ZM1125.15 308.4V384.5V385.5H1126.15H1200.23V384.5H1126.15V308.4H1125.15ZM1125.15 385.5V461.6V462.6H1126.15H1200.23V461.6H1126.15V385.5H1125.15ZM1125.15 462.6V538.7V539.7H1126.15H1200.23V538.7H1126.15V462.6H1125.15ZM1125.15 539.7V615.8V616.8H1126.15H1200.23V615.8H1126.15V539.7H1125.15ZM1125.15 616.8V692.9V693.9H1126.15H1200.23V692.9H1126.15V616.8H1125.15ZM1125.15 693.9V770V771H1126.15H1200.23V770H1126.15V693.9H1125.15ZM1275.31 0H1201.23H1200.23V1V76.1V77.1H1201.23H1275.31V76.1H1201.23V1H1275.31V0ZM1200.23 77.1001V153.2V154.2H1201.23H1275.31V153.2H1201.23V77.1001H1200.23ZM1200.23 154.2V230.3V231.3H1201.23H1275.31V230.3H1201.23V154.2H1200.23ZM1200.23 231.3V307.4V308.4H1201.23H1275.31V307.4H1201.23V231.3H1200.23ZM1200.23 308.4V384.5V385.5H1201.23H1275.31V384.5H1201.23V308.4H1200.23ZM1200.23 385.5V461.6V462.6H1201.23H1275.31V461.6H1201.23V385.5H1200.23ZM1200.23 462.6V538.7V539.7H1201.23H1275.31V538.7H1201.23V462.6H1200.23ZM1200.23 539.7V615.8V616.8H1201.23H1275.31V615.8H1201.23V539.7H1200.23ZM1200.23 616.8V692.9V693.9H1201.23H1275.31V692.9H1201.23V616.8H1200.23ZM1200.23 693.9V770V771H1201.23H1275.31V770H1201.23V693.9H1200.23ZM1350.38 0H1276.31H1275.31V1V76.1V77.1H1276.31H1350.38V76.1H1276.31V1H1350.38V0ZM1275.31 77.1001V153.2V154.2H1276.31H1350.38V153.2H1276.31V77.1001H1275.31ZM1275.31 154.2V230.3V231.3H1276.31H1350.38V230.3H1276.31V154.2H1275.31ZM1275.31 231.3V307.4V308.4H1276.31H1350.38V307.4H1276.31V231.3H1275.31ZM1275.31 308.4V384.5V385.5H1276.31H1350.38V384.5H1276.31V308.4H1275.31ZM1275.31 385.5V461.6V462.6H1276.31H1350.38V461.6H1276.31V385.5H1275.31ZM1275.31 462.6V538.7V539.7H1276.31H1350.38V538.7H1276.31V462.6H1275.31ZM1275.31 539.7V615.8V616.8H1276.31H1350.38V615.8H1276.31V539.7H1275.31ZM1275.31 616.8V692.9V693.9H1276.31H1350.38V692.9H1276.31V616.8H1275.31ZM1275.31 693.9V770V771H1276.31H1350.38V770H1276.31V693.9H1275.31ZM1425.46 0H1351.38H1350.38V1V76.1V77.1H1351.38H1425.46V76.1H1351.38V1H1425.46V0ZM1350.38 77.1001V153.2V154.2H1351.38H1425.46V153.2H1351.38V77.1001H1350.38ZM1350.38 154.2V230.3V231.3H1351.38H1425.46V230.3H1351.38V154.2H1350.38ZM1350.38 231.3V307.4V308.4H1351.38H1425.46V307.4H1351.38V231.3H1350.38ZM1350.38 308.4V384.5V385.5H1351.38H1425.46V384.5H1351.38V308.4H1350.38ZM1350.38 385.5V461.6V462.6H1351.38H1425.46V461.6H1351.38V385.5H1350.38ZM1350.38 462.6V538.7V539.7H1351.38H1425.46V538.7H1351.38V462.6H1350.38ZM1350.38 539.7V615.8V616.8H1351.38H1425.46V615.8H1351.38V539.7H1350.38ZM1350.38 616.8V692.9V693.9H1351.38H1425.46V692.9H1351.38V616.8H1350.38ZM1350.38 693.9V770V771H1351.38H1425.46V770H1351.38V693.9H1350.38Z" fill="#333333"/>
</svg>
